<svg width="29" height="29" viewBox="0 0 29 29" fill="none" xmlns="http://www.w3.org/2000/svg">
<path d="M20.45 7.7H19.6V6.85C19.6 6.34 19.26 6 18.75 6C18.24 6 17.9 6.34 17.9 6.85V7.7H11.1V6.85C11.1 6.34 10.76 6 10.25 6C9.74 6 9.4 6.34 9.4 6.85V7.7H8.55C7.105 7.7 6 8.805 6 10.25V11.1H23V10.25C23 8.805 21.895 7.7 20.45 7.7ZM6 20.45C6 21.895 7.105 23 8.55 23H20.45C21.895 23 23 21.895 23 20.45V12.8H6V20.45ZM18.75 14.5C19.26 14.5 19.6 14.84 19.6 15.35C19.6 15.86 19.26 16.2 18.75 16.2C18.24 16.2 17.9 15.86 17.9 15.35C17.9 14.84 18.24 14.5 18.75 14.5ZM18.75 17.9C19.26 17.9 19.6 18.24 19.6 18.75C19.6 19.26 19.26 19.6 18.75 19.6C18.24 19.6 17.9 19.26 17.9 18.75C17.9 18.24 18.24 17.9 18.75 17.9ZM14.5 14.5C15.01 14.5 15.35 14.84 15.35 15.35C15.35 15.86 15.01 16.2 14.5 16.2C13.99 16.2 13.65 15.86 13.65 15.35C13.65 14.84 13.99 14.5 14.5 14.5ZM14.5 17.9C15.01 17.9 15.35 18.24 15.35 18.75C15.35 19.26 15.01 19.6 14.5 19.6C13.99 19.6 13.65 19.26 13.65 18.75C13.65 18.24 13.99 17.9 14.5 17.9ZM10.25 14.5C10.76 14.5 11.1 14.84 11.1 15.35C11.1 15.86 10.76 16.2 10.25 16.2C9.74 16.2 9.4 15.86 9.4 15.35C9.4 14.84 9.74 14.5 10.25 14.5ZM10.25 17.9C10.76 17.9 11.1 18.24 11.1 18.75C11.1 19.26 10.76 19.6 10.25 19.6C9.74 19.6 9.4 19.26 9.4 18.75C9.4 18.24 9.74 17.9 10.25 17.9Z" fill="white" fill-opacity="0.25"/>
</svg>
