<svg width="29" height="29" viewBox="0 0 29 29" fill="none" xmlns="http://www.w3.org/2000/svg">
<path fill-rule="evenodd" clip-rule="evenodd" d="M6.37491 4.07179C6.17734 4.16829 6.04746 4.36956 6.01619 4.6276C6.00197 4.74494 5.99597 9.27165 6.00285 14.687C6.01526 24.4481 6.0161 24.5342 6.09978 24.6723C6.1462 24.7489 6.23777 24.8505 6.30326 24.8979C6.41854 24.9815 6.47209 24.9847 7.98163 24.996C9.71048 25.009 9.73778 25.0054 9.93008 24.7434C10.0614 24.5643 10.0614 24.2145 9.93008 24.0355C9.7485 23.7881 9.66777 23.7741 8.42484 23.7741H7.30242V23.1202V22.4664L8.05902 22.4536C8.88433 22.4396 8.92864 22.4275 9.133 22.1614C9.24867 22.0108 9.24867 21.681 9.133 21.5303C8.92864 21.2642 8.88433 21.2522 8.05902 21.2382L7.30242 21.2253V20.6125V19.9997H8.42484C9.66777 19.9997 9.7485 19.9857 9.93008 19.7383C10.0614 19.5593 10.0614 19.2095 9.93008 19.0304C9.7485 18.783 9.66777 18.769 8.42484 18.769H7.30242V18.1562V17.5434L8.05902 17.5306C8.88433 17.5166 8.92864 17.5045 9.133 17.2384C9.24867 17.0878 9.24867 16.7579 9.133 16.6073C8.92864 16.3412 8.88433 16.3291 8.05902 16.3151L7.30242 16.3023V15.6895V15.0767H8.42484C9.66777 15.0767 9.7485 15.0627 9.93008 14.8153C10.0614 14.6362 10.0614 14.2864 9.93008 14.1074C9.7485 13.86 9.66777 13.846 8.42484 13.846H7.30242V13.2332V12.6204L8.05902 12.6075C8.88433 12.5935 8.92864 12.5815 9.133 12.3154C9.24867 12.1648 9.24867 11.8349 9.133 11.6843C8.92864 11.4182 8.88433 11.4061 8.05902 11.3921L7.30242 11.3793V10.7665V10.1537H8.42484C9.66777 10.1537 9.7485 10.1397 9.93008 9.89224C10.0614 9.71321 10.0614 9.36343 9.93008 9.18439C9.7485 8.93697 9.66777 8.92294 8.42484 8.92294H7.30242V8.31015V7.69735L8.05902 7.68451C8.88433 7.67052 8.92864 7.65846 9.133 7.39237C9.24867 7.24173 9.24867 6.91189 9.133 6.76124C8.92864 6.49515 8.88433 6.48309 8.05902 6.4691L7.30242 6.45626V5.84347V5.23067H8.42484C9.66777 5.23067 9.7485 5.21664 9.93008 4.96922C10.0614 4.79019 10.0614 4.44041 9.93008 4.26137C9.74175 4.00472 9.70689 3.99992 8.03451 4C6.67852 4.00004 6.50653 4.00747 6.37491 4.07179ZM17.9996 4.05744C17.3913 4.1929 16.9192 4.45632 16.4877 4.901C16.1676 5.23096 15.9564 5.5814 15.8193 6.01015C15.7393 6.26037 15.7209 6.40982 15.7209 6.81014C15.7209 7.37596 15.8099 7.72763 16.0688 8.18449C16.2667 8.53378 16.8179 9.06961 17.1767 9.26136C18.0163 9.71013 19.0154 9.73261 19.8774 9.3222C20.3237 9.10965 20.8788 8.59827 21.1125 8.18449C21.3757 7.71815 21.4601 7.37728 21.4576 6.78963C21.4558 6.33864 21.4414 6.23723 21.3385 5.94862C21.1663 5.46558 20.9993 5.20791 20.6188 4.83802C20.2359 4.46572 19.9684 4.30264 19.4765 4.14158C19.0635 4.00632 18.3989 3.96845 17.9996 4.05744ZM14.9011 9.73187C14.6111 9.97848 14.3723 10.3374 14.253 10.7058C14.1604 10.992 14.1596 11.0206 14.1596 13.7229C14.1596 16.4252 14.1604 16.4538 14.253 16.74C14.369 17.0983 14.6073 17.4625 14.88 17.6981C15.133 17.9167 15.5942 18.1376 15.9196 18.196C16.0766 18.2241 17.0623 18.235 18.7469 18.2272L21.3332 18.2151L21.5864 18.1164C22.254 17.8561 22.7209 17.3826 22.9162 16.7677C22.9963 16.5156 23 16.3812 23 13.7229C23 11.0646 22.9963 10.9302 22.9162 10.6781C22.8702 10.5331 22.7596 10.305 22.6706 10.1713C22.51 9.92974 22.0909 9.52482 22.0248 9.54718C22.0058 9.55358 21.3297 10.4804 20.5224 11.6067C19.715 12.7331 19.0009 13.6931 18.9354 13.74C18.7703 13.8584 18.4104 13.8584 18.2453 13.74C18.1797 13.6931 17.4654 12.7331 16.6579 11.6067C15.8503 10.4804 15.176 9.55415 15.1594 9.54841C15.1427 9.54267 15.0265 9.62525 14.9011 9.73187ZM17.6012 10.7665C17.6075 10.8251 18.5601 12.1018 18.594 12.0972C18.6298 12.0925 19.574 10.8175 19.5795 10.7665C19.5808 10.7539 19.4443 10.767 19.276 10.7957C19.1078 10.8244 18.7992 10.8479 18.5903 10.8479C18.3815 10.8479 18.0729 10.8244 17.9046 10.7957C17.7363 10.767 17.5998 10.7539 17.6012 10.7665ZM15.7089 21.9895C15.7205 24.4481 15.7237 24.5377 15.8053 24.6723C15.8517 24.7489 15.9433 24.8505 16.0088 24.8979C16.1267 24.9834 16.1531 24.9843 18.5903 24.9843C21.0276 24.9843 21.0539 24.9834 21.1719 24.8979C21.2374 24.8505 21.329 24.7489 21.3754 24.6723C21.457 24.5377 21.4602 24.4481 21.4718 21.9895L21.4839 19.4459H18.5903H15.6968L15.7089 21.9895Z" fill="white" fill-opacity="0.25"/>
</svg>
