<svg width="29" height="29" viewBox="0 0 29 29" fill="none" xmlns="http://www.w3.org/2000/svg">
<path fill-rule="evenodd" clip-rule="evenodd" d="M14.2577 5.05925C13.033 5.25627 11.8542 6.02004 11.1398 7.07927C10.7931 7.59334 10.5011 8.35044 10.3966 9.00649C10.2124 10.1621 10.4967 11.4686 11.1398 12.4222C11.8659 13.4987 13.0409 14.2512 14.2995 14.4457C17.1244 14.8824 19.6761 12.6563 19.6814 9.75072C19.6841 8.29149 18.9778 6.84355 17.8361 5.96797C16.8116 5.18225 15.5245 4.85539 14.2577 5.05925ZM9.70925 15.9299C8.30444 16.2213 7.26638 17.3197 7.03929 18.7549C6.96568 19.2204 7.00257 21.1169 7.09137 21.431C7.27978 22.0972 7.55135 22.5821 7.981 23.0194C8.27706 23.3208 8.74798 23.6428 9.07468 23.7673C9.72265 24.0144 9.3503 23.9998 15.0089 23.9998C20.6674 23.9998 20.2951 24.0144 20.943 23.7673C21.6836 23.485 22.4942 22.66 22.7716 21.9063C22.9901 21.3127 23 21.2275 23 19.9438C23 18.6602 22.9901 18.5749 22.7716 17.9814C22.6509 17.6534 22.335 17.1725 22.0423 16.8712C21.755 16.5755 21.2726 16.2459 20.9437 16.1206C20.2922 15.8726 20.7021 15.8894 15.1132 15.8812C10.9931 15.8751 9.927 15.8847 9.70925 15.9299Z" fill="white" fill-opacity="0.25"/>
</svg>
