<svg width="22" height="28" viewBox="0 0 22 28" fill="none" xmlns="http://www.w3.org/2000/svg">
<path d="M1.00484 0.0636732C0.529498 0.205413 0.180574 0.585277 0.0490956 1.08987C0.0035838 1.25996 -0.00652994 4.70708 0.0035838 14.6119C0.0187544 27.6293 0.0187544 27.9128 0.114835 28.1282C0.25137 28.4287 0.519384 28.7178 0.797512 28.8653L1.03013 28.9843H10.6129H20.1957L20.4283 28.8653C20.7064 28.7178 20.9744 28.4287 21.111 28.1282C21.207 27.9128 21.207 27.6463 21.207 14.4985C21.207 1.35067 21.207 1.0842 21.111 0.868757C20.9744 0.568268 20.7064 0.279118 20.4283 0.131708L20.1957 0.0126468L10.714 0.00130755C3.331 -0.00436205 1.18183 0.00697716 1.00484 0.0636732ZM18.6938 1.54911L19.867 1.58313V13.5403V25.4975H10.6129H1.35882V13.5346V1.57179L7.33604 1.56045C10.6281 1.54911 14.264 1.53777 15.4169 1.52643C16.5699 1.51509 18.0465 1.52643 18.6938 1.54911ZM11.0073 26.518C11.6496 26.9603 11.3714 28.0715 10.6129 28.0715C9.85436 28.0715 9.57624 26.9603 10.2185 26.518C10.4359 26.3706 10.7899 26.3706 11.0073 26.518Z" fill="#3A3A3A"/>
</svg>
