<svg width="32" height="32" viewBox="0 0 32 32" fill="none" xmlns="http://www.w3.org/2000/svg">
<path d="M16 2.6665C13.172 2.66968 10.4608 3.79451 8.46108 5.79421C6.46138 7.79391 5.33655 10.5052 5.33337 13.3332C5.33337 17.6732 8.48404 21.2772 11.8214 25.0918C12.8774 26.2998 13.9707 27.5492 14.944 28.8132C15.0686 28.9748 15.2286 29.1056 15.4116 29.1956C15.5947 29.2857 15.796 29.3325 16 29.3325C16.2041 29.3325 16.4054 29.2857 16.5884 29.1956C16.7715 29.1056 16.9315 28.9748 17.056 28.8132C18.0294 27.5492 19.1227 26.2998 20.1787 25.0918C23.516 21.2772 26.6667 17.6732 26.6667 13.3332C26.6635 10.5052 25.5387 7.79391 23.539 5.79421C21.5393 3.79451 18.828 2.66968 16 2.6665ZM16 17.3332C15.2089 17.3332 14.4356 17.0986 13.7778 16.659C13.12 16.2195 12.6073 15.5948 12.3045 14.8639C12.0018 14.133 11.9226 13.3287 12.0769 12.5528C12.2312 11.7769 12.6122 11.0642 13.1716 10.5047C13.731 9.94533 14.4438 9.56437 15.2197 9.41003C15.9956 9.25569 16.7999 9.3349 17.5308 9.63765C18.2617 9.9404 18.8864 10.4531 19.3259 11.1109C19.7654 11.7687 20 12.542 20 13.3332C20 14.394 19.5786 15.4115 18.8285 16.1616C18.0783 16.9117 17.0609 17.3332 16 17.3332Z" fill="#0B9AF5"/>
</svg>
