<svg width="32" height="28" viewBox="0 0 32 28" fill="none" xmlns="http://www.w3.org/2000/svg">
<g clip-path="url(#clip0_13_9)">
<path d="M16.3245 1.86021L16.0037 1.5918L15.6829 1.86021L1.33568 13.8633C1.12375 14.0404 0.799493 14.0173 0.61555 13.8157C0.531716 13.7214 0.492431 13.6026 0.501041 13.4853C0.50968 13.3675 0.566438 13.2535 0.66544 13.17C0.665598 13.1699 0.665757 13.1698 0.665916 13.1696L6.3222 8.4376L6.50137 8.2877V8.0541V2.89638C6.50137 2.52268 6.655 2.16054 6.93455 1.8907C7.21469 1.62028 7.59829 1.46538 8.00183 1.46538C8.40538 1.46538 8.789 1.62028 9.06913 1.89069C9.34868 2.16053 9.5023 2.52267 9.5023 2.89638V4.70767V5.77767L10.3231 5.09121L15.6704 0.618993L15.6705 0.618867C15.7608 0.543264 15.8794 0.499512 16.0047 0.499512C16.13 0.499512 16.2486 0.543252 16.3391 0.61895L31.3399 13.1683C31.4361 13.2516 31.4911 13.3644 31.4989 13.4807C31.5068 13.5975 31.467 13.7155 31.383 13.809C31.2983 13.9031 31.175 13.9647 31.0382 13.9748C30.9019 13.9848 30.7695 13.9425 30.6695 13.8613C30.6689 13.8609 30.6683 13.8604 30.6678 13.86L16.3245 1.86021ZM12.0028 17.8445H11.5028V18.3445V27.4995H6.00137C5.59781 27.4995 5.21423 27.3446 4.93412 27.0742L4.93407 27.0741C4.65455 26.8044 4.50091 26.4422 4.50091 26.0685V16.6046V16.6039C4.50062 16.3954 4.5484 16.1887 4.64156 15.9988H4.64157C4.73475 15.8088 4.87134 15.6397 5.04267 15.5046L5.04335 15.5041L15.0457 7.58883L15.0463 7.58831C15.3139 7.37588 15.6522 7.25791 16.0037 7.25791C16.3552 7.25791 16.6935 7.37588 16.9611 7.58831L16.9617 7.58883L26.964 15.5041L26.9643 15.5043C27.3114 15.7786 27.5065 16.1819 27.5065 16.6046V26.0685C27.5065 26.4422 27.3529 26.8044 27.0734 27.0741L27.0733 27.0742C26.7932 27.3446 26.4096 27.4995 26.0061 27.4995H20.5046V18.3445V17.8445H20.0046H12.0028Z" fill="#0B9AF5" stroke="#0B9AF5"/>
</g>
<defs>
<clipPath id="clip0_13_9">
<rect width="32" height="28" fill="white"/>
</clipPath>
</defs>
</svg>
