<svg width="32" height="32" viewBox="0 0 32 32" fill="none" xmlns="http://www.w3.org/2000/svg">
<path d="M16 2.6665C13.3629 2.6665 10.785 3.44849 8.59236 4.91358C6.39971 6.37866 4.69074 8.46104 3.68157 10.8974C2.6724 13.3337 2.40836 16.0146 2.92283 18.601C3.4373 21.1875 4.70717 23.5632 6.57188 25.4279C8.43658 27.2926 10.8123 28.5625 13.3988 29.077C15.9852 29.5914 18.6661 29.3274 21.1024 28.3182C23.5388 27.3091 25.6211 25.6001 27.0862 23.4074C28.5513 21.2148 29.3333 18.6369 29.3333 15.9998C29.3333 14.2489 28.9884 12.5151 28.3184 10.8974C27.6483 9.27972 26.6662 7.80986 25.4281 6.57175C24.1899 5.33363 22.7201 4.35151 21.1024 3.68144C19.4847 3.01138 17.7509 2.6665 16 2.6665ZM17.3333 21.3332C17.3333 21.6868 17.1928 22.0259 16.9428 22.276C16.6927 22.526 16.3536 22.6665 16 22.6665C15.6463 22.6665 15.3072 22.526 15.0572 22.276C14.8071 22.0259 14.6666 21.6868 14.6666 21.3332V14.6665C14.6666 14.3129 14.8071 13.9737 15.0572 13.7237C15.3072 13.4736 15.6463 13.3332 16 13.3332C16.3536 13.3332 16.6927 13.4736 16.9428 13.7237C17.1928 13.9737 17.3333 14.3129 17.3333 14.6665V21.3332ZM16 11.9998C15.7363 11.9998 15.4785 11.9216 15.2592 11.7751C15.0399 11.6286 14.869 11.4204 14.7681 11.1767C14.6672 10.9331 14.6408 10.665 14.6923 10.4064C14.7437 10.1477 14.8707 9.91017 15.0572 9.7237C15.2436 9.53723 15.4812 9.41024 15.7398 9.35879C15.9985 9.30734 16.2666 9.33375 16.5102 9.43466C16.7538 9.53558 16.9621 9.70648 17.1086 9.92574C17.2551 10.145 17.3333 10.4028 17.3333 10.6665C17.3333 11.0201 17.1928 11.3593 16.9428 11.6093C16.6927 11.8594 16.3536 11.9998 16 11.9998Z" fill="#0B9AF5"/>
</svg>
