<svg width="24" height="24" viewBox="0 0 24 24" fill="none" xmlns="http://www.w3.org/2000/svg">
<g clip-path="url(#clip0_13_21)">
<path d="M17.25 0.75C13.9418 0.75 11.25 3.44175 11.25 6.75C11.25 8.9295 12.3877 10.8787 14.25 11.9445V12.75C14.25 12.9487 14.3287 13.14 14.4697 13.2803L16.3373 15.1478L15.8287 16.164C15.723 16.3755 15.723 16.6238 15.8287 16.8353L16.4115 18L15.8295 19.1647C15.777 19.2682 15.75 19.3837 15.75 19.5V21C15.75 21.1987 15.8287 21.39 15.9697 21.5303L17.4697 23.0303C17.616 23.1765 17.808 23.25 18 23.25C18.192 23.25 18.384 23.1765 18.5303 23.0303L20.0303 21.5303C20.1713 21.39 20.25 21.1987 20.25 21V11.9445C22.1123 10.8787 23.25 8.9295 23.25 6.75C23.25 3.44175 20.5582 0.75 17.25 0.75ZM17.2762 7.125C16.4497 7.14 15.765 6.4785 15.75 5.65125C15.7358 4.82475 16.3973 4.14 17.2238 4.125C18.0503 4.11 18.735 4.7715 18.75 5.59875C18.7642 6.42525 18.1027 7.11 17.2762 7.125Z" fill="url(#paint0_linear_13_21)"/>
<path d="M13.5 12.7501C13.5 12.9301 13.53 13.1176 13.5975 13.2826C13.4025 13.3351 13.2 13.3801 12.9975 13.4176C12.9225 13.4476 12.8325 13.4626 12.75 13.4626C12.2475 13.5226 11.535 13.5076 10.9275 13.3801L4.2825 20.0326C4.14 20.1676 3.9525 20.2501 3.75 20.2501H1.5C1.0875 20.2501 0.75 19.9126 0.75 19.5001V17.2501C0.75 17.0476 0.8325 16.8601 0.9675 16.7176L1.7175 15.9676C1.86 15.8326 2.0475 15.7501 2.25 15.7501H3.21L3.7875 14.0101C3.8625 13.7926 4.0425 13.6126 4.26 13.5376L5.8575 13.0051L5.2725 10.6801C5.205 10.4251 5.28 10.1551 5.4675 9.96764L6.33 9.11264C5.7525 7.04264 6.33 4.79264 7.86 3.25514C8.715 2.40014 9.795 1.83014 10.98 1.60514C11.04 1.58264 11.1 1.56764 11.145 1.56014C11.7375 1.47014 12.3375 1.47764 12.9225 1.57514C11.445 2.81264 10.5 4.67264 10.5 6.75014C10.5 9.05264 11.61 11.1151 13.5 12.3601V12.7501Z" fill="url(#paint1_linear_13_21)"/>
</g>
<defs>
<linearGradient id="paint0_linear_13_21" x1="11.25" y1="12" x2="23.25" y2="12" gradientUnits="userSpaceOnUse">
<stop stop-color="#0B9AF5"/>
<stop offset="1" stop-color="#0B9AF5"/>
</linearGradient>
<linearGradient id="paint1_linear_13_21" x1="0.75" y1="10.8736" x2="13.5975" y2="10.8736" gradientUnits="userSpaceOnUse">
<stop stop-color="#0B9AF5"/>
<stop offset="1" stop-color="#0B9AF5"/>
</linearGradient>
<clipPath id="clip0_13_21">
<rect width="24" height="24" fill="white"/>
</clipPath>
</defs>
</svg>
