<svg width="32" height="32" viewBox="0 0 32 32" fill="none" xmlns="http://www.w3.org/2000/svg">
<path d="M16 2.20703C12.3431 2.21114 8.83718 3.66566 6.25136 6.25148C3.66554 8.8373 2.21102 12.3432 2.20691 16.0001C2.21313 19.6564 3.66832 23.1611 6.25368 25.7465C8.83905 28.3318 12.3438 29.787 16 29.7932C19.6582 29.7932 23.1665 28.34 25.7532 25.7533C28.3399 23.1666 29.7931 19.6583 29.7931 16.0001C29.7931 12.342 28.3399 8.83365 25.7532 6.24694C23.1665 3.66023 19.6582 2.20703 16 2.20703ZM24.3896 23.9591C23.6149 22.3968 22.419 21.082 20.9368 20.1631C19.4547 19.2442 17.7452 18.7578 16.0013 18.7588C14.2574 18.7597 12.5485 19.248 11.0673 20.1684C9.58612 21.0889 8.39164 22.405 7.61862 23.9682C5.55597 21.8293 4.40661 18.9716 4.41381 16.0001C4.41381 12.9273 5.63449 9.98029 7.80733 7.80745C9.98016 5.63461 12.9272 4.41393 16 4.41393C19.0729 4.41393 22.0199 5.63461 24.1927 7.80745C26.3655 9.98029 27.5862 12.9273 27.5862 16.0001C27.5931 18.9673 26.4469 21.821 24.3896 23.9591ZM16 7.72427C15.0179 7.72427 14.0579 8.0155 13.2413 8.56111C12.4247 9.10673 11.7883 9.88224 11.4125 10.7896C11.0366 11.6969 10.9383 12.6953 11.1299 13.6585C11.3215 14.6217 11.7944 15.5065 12.4889 16.2009C13.1833 16.8954 14.0681 17.3683 15.0313 17.5599C15.9945 17.7515 16.9929 17.6532 17.9002 17.2773C18.8076 16.9015 19.5831 16.2651 20.1287 15.4485C20.6743 14.6319 20.9655 13.6719 20.9655 12.6898C20.9655 12.0377 20.8371 11.392 20.5876 10.7896C20.338 10.1871 19.9723 9.63973 19.5112 9.17864C19.0501 8.71755 18.5027 8.35179 17.9002 8.10225C17.2978 7.85271 16.6521 7.72427 16 7.72427Z" fill="#0B9AF5"/>
</svg>
