<svg width="48" height="48" viewBox="0 0 48 48" fill="none" xmlns="http://www.w3.org/2000/svg">
<path d="M12 39.0004C11.451 39.0004 10.905 38.8504 10.422 38.5534C9.98753 38.2838 9.62895 37.9079 9.38014 37.4612C9.13133 37.0145 9.00049 36.5118 9 36.0004V12.0004C9 10.9594 9.54 9.99344 10.422 9.44744C10.8574 9.17972 11.3538 9.02715 11.8644 9.00405C12.3751 8.98096 12.8832 9.08812 13.341 9.31544L37.341 21.3154C37.8393 21.565 38.2583 21.9484 38.5512 22.4226C38.844 22.8968 38.9991 23.4431 38.9991 24.0004C38.9991 24.5578 38.844 25.1041 38.5512 25.5783C38.2583 26.0525 37.8393 26.4358 37.341 26.6854L13.341 38.6854C12.921 38.8954 12.456 39.0004 12 39.0004Z" fill="white"/>
</svg>
