<svg width="32" height="32" viewBox="0 0 32 32" fill="none" xmlns="http://www.w3.org/2000/svg">
<g clip-path="url(#clip0_13_26)">
<path d="M31.0208 0.647842C30.9279 0.416661 30.7496 0.230167 30.5227 0.127157C30.2959 0.024147 30.0381 0.0125525 29.8029 0.0947854C29.5678 0.177018 29.3734 0.346747 29.2602 0.568663C29.147 0.790578 29.1237 1.04759 29.1952 1.28624C30.6816 5.55824 27.7312 8.74864 25.4816 10.4574L24.5728 9.15504C24.2672 8.71824 23.584 8.35504 23.0528 8.34864L17.952 8.37104C17.3288 8.38986 16.7224 8.57671 16.1968 8.91184L1.16635 19.451C0.816746 19.6971 0.578865 20.0716 0.504795 20.4926C0.430725 20.9136 0.526501 21.3469 0.771154 21.6974L7.60155 31.4702C8.11355 32.1982 8.93115 32.1102 9.66075 31.6014L24.6912 21.0606C25.1232 20.755 25.6224 20.0958 25.7984 19.5918L27.3952 14.5598C27.5712 14.0574 27.464 13.291 27.1584 12.8542L26.6048 12.0606C29.6256 9.74544 32.7616 5.65424 31.0208 0.647842ZM24.0272 15.6206C23.7503 15.8145 23.4379 15.9518 23.1079 16.0249C22.7779 16.0979 22.4367 16.1053 22.1039 16.0464C21.771 15.9876 21.4531 15.8637 21.1681 15.682C20.8832 15.5002 20.6368 15.2641 20.4432 14.987C20.051 14.4265 19.8974 13.7333 20.0158 13.0595C20.1343 12.3858 20.5153 11.7866 21.0752 11.3934C21.514 11.0859 22.038 10.9233 22.5739 10.9281C23.1098 10.933 23.6307 11.1052 24.064 11.4206C23.6288 11.683 23.3296 11.8366 23.2736 11.8606C23.0752 11.9552 22.9149 12.1143 22.8188 12.312C22.7228 12.5096 22.6967 12.734 22.7448 12.9484C22.793 13.1627 22.9125 13.3544 23.0839 13.492C23.2552 13.6295 23.4682 13.7048 23.688 13.7054C23.8256 13.7054 23.9664 13.6734 24.0992 13.611C24.4096 13.4638 24.7424 13.2894 25.0896 13.083C25.1694 13.5631 25.1121 14.056 24.9241 14.505C24.7362 14.9539 24.4252 15.3406 24.0272 15.6206Z" fill="#0B9AF5"/>
</g>
<defs>
<clipPath id="clip0_13_26">
<rect width="32" height="32" fill="white"/>
</clipPath>
</defs>
</svg>
