<svg width="24" height="24" viewBox="0 0 24 24" fill="none" xmlns="http://www.w3.org/2000/svg">
<path d="M22.51 7.13983L12.51 1.13983C12.358 1.05207 12.1855 1.00586 12.01 1.00586C11.8345 1.00586 11.662 1.05207 11.51 1.13983L1.51 7.13983C1.357 7.22582 1.22932 7.35056 1.1398 7.50152C1.05028 7.65248 1.00206 7.82434 1 7.99983V21.9998C1 22.2651 1.10536 22.5194 1.29289 22.7069C1.48043 22.8945 1.73478 22.9998 2 22.9998H22C22.2652 22.9998 22.5196 22.8945 22.7071 22.7069C22.8946 22.5194 23 22.2651 23 21.9998V7.99983C23 7.82629 22.9548 7.65574 22.8689 7.50496C22.783 7.35417 22.6593 7.22834 22.51 7.13983ZM15 11.9998C15.2652 11.9998 15.5196 12.1052 15.7071 12.2927C15.8946 12.4803 16 12.7346 16 12.9998V15.9998C16 16.2651 15.8946 16.5194 15.7071 16.7069C15.5196 16.8945 15.2652 16.9998 15 16.9998H13V17.9998C13 18.2651 12.8946 18.5194 12.7071 18.7069C12.5196 18.8945 12.2652 18.9998 12 18.9998C11.7348 18.9998 11.4804 18.8945 11.2929 18.7069C11.1054 18.5194 11 18.2651 11 17.9998V16.9998H9C8.73478 16.9998 8.48043 16.8945 8.29289 16.7069C8.10536 16.5194 8 16.2651 8 15.9998C8 15.7346 8.10536 15.4803 8.29289 15.2927C8.48043 15.1052 8.73478 14.9998 9 14.9998H14V13.9998H9C8.73478 13.9998 8.48043 13.8945 8.29289 13.7069C8.10536 13.5194 8 13.2651 8 12.9998V9.99983C8 9.73462 8.10536 9.48026 8.29289 9.29273C8.48043 9.10519 8.73478 8.99983 9 8.99983H11V7.99983C11 7.73462 11.1054 7.48026 11.2929 7.29273C11.4804 7.10519 11.7348 6.99983 12 6.99983C12.2652 6.99983 12.5196 7.10519 12.7071 7.29273C12.8946 7.48026 13 7.73462 13 7.99983V8.99983H15C15.2652 8.99983 15.5196 9.10519 15.7071 9.29273C15.8946 9.48026 16 9.73462 16 9.99983C16 10.2651 15.8946 10.5194 15.7071 10.7069C15.5196 10.8945 15.2652 10.9998 15 10.9998H10V11.9998H15Z" fill="url(#paint0_linear_13_28)"/>
<defs>
<linearGradient id="paint0_linear_13_28" x1="1" y1="12.0028" x2="23" y2="12.0028" gradientUnits="userSpaceOnUse">
<stop stop-color="#0B9AF5"/>
<stop offset="1" stop-color="#0B9AF5"/>
</linearGradient>
</defs>
</svg>
