<?xml version="1.0" standalone="no"?>
<!DOCTYPE svg PUBLIC "-//W3C//DTD SVG 20010904//EN"
 "http://www.w3.org/TR/2001/REC-SVG-20010904/DTD/svg10.dtd">
<svg version="1.0" xmlns="http://www.w3.org/2000/svg"
 width="546.000000pt" height="170.000000pt" viewBox="0 0 546.000000 170.000000"
 preserveAspectRatio="xMidYMid meet">

<g transform="translate(0.000000,170.000000) scale(0.100000,-0.100000)"
fill="#000000" stroke="none">
<path d="M4462 1118 c-7 -7 -12 -9 -12 -5 0 4 -9 3 -19 -3 -13 -6 -28 -7 -45
-1 -19 8 -30 6 -51 -11 -14 -11 -24 -23 -21 -26 3 -3 2 -10 -2 -16 -8 -10 26
-199 73 -409 l17 -78 131 3 131 3 70 100 c187 271 224 330 216 345 -6 10 -2
19 13 28 21 11 20 12 -7 6 -27 -6 -28 -6 -16 17 7 13 9 21 5 17 -5 -4 -15 -2
-24 5 -14 11 -14 10 -2 -5 12 -16 11 -18 -3 -18 -9 0 -16 7 -16 15 0 8 -9 19
-20 25 -25 13 -27 -5 -2 -19 16 -10 16 -10 -1 -11 -10 0 -20 7 -23 15 -4 9
-17 15 -33 14 -14 -1 -34 2 -43 5 -13 6 -31 -14 -82 -92 -70 -105 -89 -127
-105 -118 -5 3 -16 47 -26 97 -15 83 -36 131 -52 116 -3 -4 -13 -2 -23 3 -11
6 -21 5 -28 -2z m-114 -32 c-7 -8 -15 -12 -17 -11 -5 6 10 25 20 25 5 0 4 -6
-3 -14z"/>
</g>
</svg>
