<svg width="30" height="30" viewBox="0 0 30 30" fill="none" xmlns="http://www.w3.org/2000/svg">
<path d="M10.8119 14.4061C10.5446 14.1388 10.0693 14.1388 9.802 14.4061C9.53467 14.6734 9.53467 15.1487 9.802 15.416L13.099 18.7131C13.2475 18.8616 13.4258 18.921 13.604 18.921H13.6337C13.8416 18.921 14.0198 18.8319 14.1386 18.6536L22.3961 8.76256C22.6337 8.46553 22.604 8.01998 22.3069 7.75265C22.0099 7.51503 21.5644 7.54473 21.297 7.84176L13.5446 17.1388L10.8119 14.4061V14.4061Z" fill="white"/>
<path d="M20.3465 6.41582C16.3366 3.92077 11.198 4.48513 7.8416 7.84156C3.8911 11.7921 3.8911 18.2079 7.8416 22.1584C9.80199 24.1188 12.4159 25.1287 15 25.1287C17.5842 25.1287 20.198 24.1485 22.1584 22.1584C25.5149 18.802 26.1089 13.6336 23.5842 9.62374C23.3763 9.29701 22.9307 9.1782 22.604 9.38612C22.2772 9.59404 22.1584 10.0396 22.3664 10.3663C24.5347 13.8119 24.0297 18.2673 21.1485 21.1485C17.7624 24.5346 12.2376 24.5346 8.8515 21.1485C5.46536 17.7624 5.46536 12.2376 8.8515 8.85146C11.7327 5.97027 16.1584 5.46532 19.604 7.60394C19.9307 7.81186 20.3763 7.72275 20.5842 7.36631C20.7921 7.06928 20.6733 6.62374 20.3465 6.41582V6.41582Z" fill="white"/>
</svg>
