<svg width="12" height="12" viewBox="0 0 12 12" fill="none" xmlns="http://www.w3.org/2000/svg">
<path d="M11.0756 1.23019C10.7288 1.06519 10.215 1.18894 9.76313 1.54894C9.53029 1.75166 9.33537 1.99419 9.1875 2.26519C9.1875 2.19769 9.1875 2.13019 9.1875 2.06269H2.8125C2.8125 2.13019 2.8125 2.19769 2.8125 2.26519C2.66182 1.99343 2.4637 1.75085 2.2275 1.54894C1.77938 1.18894 1.26563 1.06519 0.915001 1.23019C0.799727 1.29159 0.704932 1.38537 0.642298 1.49998C0.579663 1.61459 0.551925 1.74501 0.562501 1.87519C0.562501 5.02894 3.28125 5.57082 3.80063 5.64582C4.19235 6.1063 4.6896 6.46525 5.25 6.69207V8.43769H3.80813V8.81269H4.37063L4.07063 10.3127H3.75C3.70027 10.3127 3.65258 10.3324 3.61742 10.3676C3.58226 10.4028 3.5625 10.4505 3.5625 10.5002V11.2502C3.5625 11.2999 3.58226 11.3476 3.61742 11.3828C3.65258 11.4179 3.70027 11.4377 3.75 11.4377H8.25C8.29973 11.4377 8.34742 11.4179 8.38258 11.3828C8.41775 11.3476 8.4375 11.2999 8.4375 11.2502V10.5002C8.4375 10.4505 8.41775 10.4028 8.38258 10.3676C8.34742 10.3324 8.29973 10.3127 8.25 10.3127H7.935L7.635 8.81269H8.1975V8.43769H6.75V6.69207C7.3104 6.46525 7.80765 6.1063 8.19938 5.64582C8.71875 5.57082 11.4375 5.02894 11.4375 1.87519C11.4472 1.74402 11.4181 1.61289 11.3537 1.49818C11.2894 1.38346 11.1926 1.29026 11.0756 1.23019V1.23019ZM0.937501 1.87519C0.937501 1.64082 1.05 1.58644 1.0875 1.56957C1.275 1.48332 1.635 1.54894 1.99875 1.84144C2.46375 2.21644 2.78813 3.02457 2.90063 3.31332C2.98604 3.97945 3.19391 4.62403 3.51375 5.21457C2.69813 5.02519 0.937501 4.33144 0.937501 1.87519ZM8.48625 5.21269C8.80631 4.62292 9.0142 3.97891 9.09938 3.31332C9.21188 3.02457 9.53625 2.21269 10.0013 1.84144C10.365 1.54894 10.7344 1.48332 10.9125 1.56957C10.95 1.58644 11.0625 1.64082 11.0625 1.87519C11.0625 4.32394 9.30188 5.02144 8.48625 5.21269Z" fill="#FFA200"/>
<path d="M9.1875 0.75C9.1875 0.700272 9.16775 0.652581 9.13258 0.617417C9.09742 0.582254 9.04973 0.5625 9 0.5625H3C2.95027 0.5625 2.90258 0.582254 2.86742 0.617417C2.83225 0.652581 2.8125 0.700272 2.8125 0.75V1.6875H9.1875V0.75Z" fill="#FFA200"/>
</svg>
