<svg width="20" height="20" viewBox="0 0 20 20" fill="none" xmlns="http://www.w3.org/2000/svg">
<path d="M15.5848 15.2992C16.6577 14.0029 17.2437 12.3723 17.2414 10.6895C17.2414 6.69023 13.9993 3.44816 9.99999 3.44816C6.00068 3.44816 2.75861 6.69023 2.75861 10.6895C2.75861 12.4406 3.38068 14.0468 4.41516 15.2992L2.96068 16.7537C2.83137 16.883 2.75872 17.0584 2.75872 17.2413C2.75872 17.4241 2.83137 17.5995 2.96068 17.7288C3.09 17.8582 3.26539 17.9308 3.44827 17.9308C3.63115 17.9308 3.80654 17.8582 3.93585 17.7288L5.39034 16.2744C6.64275 17.3088 8.24896 17.9309 9.99999 17.9309C11.751 17.9309 13.3572 17.3088 14.6096 16.2744L16.0641 17.7288C16.128 17.7931 16.204 17.8441 16.2877 17.8789C16.3714 17.9137 16.4611 17.9316 16.5517 17.9316C16.6423 17.9316 16.7321 17.9137 16.8158 17.8789C16.8994 17.8441 16.9754 17.7931 17.0393 17.7288C17.1034 17.6649 17.1543 17.5889 17.189 17.5052C17.2237 17.4215 17.2415 17.3318 17.2415 17.2413C17.2415 17.1507 17.2237 17.061 17.189 16.9773C17.1543 16.8937 17.1034 16.8177 17.0393 16.7537L15.5848 15.2992V15.2992ZM10.6896 11.3792H5.51723V9.99988H9.31034V4.82747H10.6896V11.3792ZM6.48827 2.82195C5.9317 2.33855 5.21994 2.07127 4.48275 2.06885C3.65967 2.06885 2.87029 2.39582 2.28828 2.97783C1.70627 3.55984 1.3793 4.34921 1.3793 5.1723C1.3793 5.94126 1.66896 6.63574 2.13241 7.17781C2.99986 5.23999 4.55045 3.6894 6.48827 2.82195V2.82195ZM17.8676 7.17781C18.351 6.62125 18.6183 5.90948 18.6207 5.1723C18.6207 4.34921 18.2937 3.55984 17.7117 2.97783C17.1297 2.39582 16.3403 2.06885 15.5172 2.06885C14.7483 2.06885 14.0538 2.3585 13.5117 2.82195C15.4495 3.6894 17.0001 5.23999 17.8676 7.17781V7.17781Z" fill="white"/>
</svg>
