<svg width="19" height="19" viewBox="0 0 19 19" fill="none" xmlns="http://www.w3.org/2000/svg">
<path d="M15.8523 6.10634L11.7011 1.95513C11.6952 1.94918 11.6887 1.94397 11.6826 1.93831C11.6746 1.93096 11.6668 1.92335 11.6584 1.91642C11.6528 1.91186 11.6468 1.90787 11.6411 1.90349C11.6314 1.89606 11.6218 1.88852 11.6116 1.88167C11.607 1.87859 11.6021 1.87602 11.5975 1.87308C11.5857 1.86565 11.5739 1.85826 11.5616 1.85163C11.5583 1.84985 11.5548 1.84847 11.5515 1.84677C11.5375 1.8396 11.5235 1.83271 11.5089 1.82666C11.5067 1.82572 11.5043 1.82502 11.502 1.82412C11.4864 1.81785 11.4706 1.81198 11.4543 1.80705C11.452 1.80633 11.4495 1.80589 11.4472 1.8052C11.4311 1.80053 11.4148 1.79621 11.3982 1.79288C11.3929 1.79183 11.3874 1.79136 11.3821 1.79045C11.3683 1.78806 11.3546 1.78563 11.3406 1.78426C11.3209 1.78225 11.3011 1.78125 11.2813 1.78125H4.15567C3.84084 1.78161 3.539 1.90684 3.31638 2.12946C3.09376 2.35208 2.96853 2.65392 2.96817 2.96875V16.0312C2.96853 16.3461 3.09376 16.6479 3.31638 16.8705C3.539 17.0932 3.84084 17.2184 4.15567 17.2188H14.8438C15.1586 17.2184 15.4604 17.0932 15.683 16.8705C15.9057 16.6479 16.0309 16.3461 16.0313 16.0312V6.54274C16.0313 6.53886 16.0318 6.53513 16.0318 6.53125C16.0319 6.45201 16.016 6.37357 15.9852 6.30058C15.9544 6.22759 15.9092 6.16154 15.8523 6.10634V6.10634ZM11.2813 11.875H10.0938V13.0625C10.0938 13.22 10.0312 13.371 9.91985 13.4823C9.8085 13.5937 9.65747 13.6562 9.5 13.6562C9.34253 13.6562 9.19151 13.5937 9.08016 13.4823C8.96881 13.371 8.90625 13.22 8.90625 13.0625V11.875H7.71875C7.56128 11.875 7.41026 11.8124 7.29891 11.7011C7.18756 11.5897 7.125 11.4387 7.125 11.2812C7.125 11.1238 7.18756 10.9728 7.29891 10.8614C7.41026 10.7501 7.56128 10.6875 7.71875 10.6875H8.90625V9.5C8.90625 9.34253 8.96881 9.19151 9.08016 9.08016C9.19151 8.96881 9.34253 8.90625 9.5 8.90625C9.65747 8.90625 9.8085 8.96881 9.91985 9.08016C10.0312 9.19151 10.0938 9.34253 10.0938 9.5V10.6875H11.2813C11.4387 10.6875 11.5897 10.7501 11.7011 10.8614C11.8124 10.9728 11.875 11.1238 11.875 11.2812C11.875 11.4387 11.8124 11.5897 11.7011 11.7011C11.5897 11.8124 11.4387 11.875 11.2813 11.875ZM11.2813 6.53125V3.21467L14.5978 6.53125H11.2813Z" fill="white"/>
</svg>
