<svg width="15" height="15" viewBox="0 0 15 15" fill="none" xmlns="http://www.w3.org/2000/svg">
<path d="M7.50002 4.33594L7.81409 3.90938L7.9594 3.7125L7.50002 2.92969L7.04065 3.7125L7.18596 3.90938L7.50002 4.33594Z" fill="white"/>
<path d="M7.49998 9.37012C7.91937 9.37012 8.25935 8.80348 8.25935 8.10449C8.25935 7.40551 7.91937 6.83887 7.49998 6.83887C7.08058 6.83887 6.7406 7.40551 6.7406 8.10449C6.7406 8.80348 7.08058 9.37012 7.49998 9.37012Z" fill="white"/>
<path d="M12.1688 4.15293L12.211 4.31699L13.05 3.62793L12.9141 2.94824L12.0797 3.80137L12.1641 4.15293H12.1688Z" fill="white"/>
<path d="M12.9047 4.40625L12.2203 4.96406C12.1888 4.98523 12.1539 5.00107 12.1172 5.01094H12.0563H11.9766C11.9367 4.99623 11.9006 4.97251 11.8714 4.94161C11.8421 4.91072 11.8204 4.87349 11.8078 4.83281V4.76719L10.2844 6.5625V10.2703H12.4078L14.2828 6.49219L12.9047 4.40625ZM4.71565 6.5625L3.20627 4.7625V4.82813C3.19375 4.8688 3.172 4.90603 3.14273 4.93693C3.11347 4.96782 3.07746 4.99155 3.03752 5.00625H2.95784H2.88284C2.84613 4.99638 2.81129 4.98055 2.77971 4.95938L2.09534 4.40625L0.689087 6.49687L2.56409 10.275H4.68752L4.71565 6.5625ZM9.77815 6.5625L8.02971 4.47188L7.70159 4.94063C7.67857 4.97257 7.64829 4.99858 7.61325 5.01653C7.5782 5.03447 7.5394 5.04383 7.50002 5.04383C7.46065 5.04383 7.42185 5.03447 7.3868 5.01653C7.35176 4.99858 7.32148 4.97257 7.29846 4.94063L6.97034 4.47188L5.2219 6.5625V10.2703H9.77815V6.5625ZM7.50002 9.87656C6.79221 9.87656 6.2344 9.09844 6.2344 8.10469C6.2344 7.11094 6.79221 6.33281 7.50002 6.33281C8.20784 6.33281 8.76565 7.11094 8.76565 8.10469C8.76565 9.09844 8.20784 9.87656 7.50002 9.87656Z" fill="white"/>
<path d="M12.3516 10.7812H2.64844V12.3H12.3516V10.7812Z" fill="white"/>
<path d="M2.83126 4.15293H2.83595L2.92032 3.80137L2.08595 2.94824L1.95001 3.62793L2.78907 4.31699L2.83126 4.15293Z" fill="white"/>
</svg>
