<svg width="19" height="19" viewBox="0 0 19 19" fill="none" xmlns="http://www.w3.org/2000/svg">
<path d="M15.2911 3.70897C12.0925 0.510421 6.90749 0.510421 3.70894 3.70897C0.51039 6.90752 0.51039 12.0926 3.70894 15.2911C6.90749 18.4897 12.0925 18.4897 15.2911 15.2911C18.4896 12.0926 18.489 6.90752 15.2911 3.70897V3.70897ZM12.9744 12.048C13.0972 12.1709 13.1663 12.3375 13.1663 12.5112C13.1663 12.685 13.0972 12.8516 12.9744 12.9744C12.8515 13.0973 12.6849 13.1663 12.5112 13.1663C12.3374 13.1663 12.1708 13.0973 12.048 12.9744L9.50001 10.4265L6.95205 12.9744C6.89134 13.0355 6.81917 13.0839 6.73967 13.117C6.66018 13.15 6.57493 13.1671 6.48884 13.1671C6.40274 13.1671 6.3175 13.15 6.238 13.117C6.15851 13.0839 6.08634 13.0355 6.02563 12.9744C5.96474 12.9136 5.91643 12.8414 5.88346 12.7619C5.8505 12.6825 5.83353 12.5973 5.83353 12.5112C5.83353 12.4252 5.8505 12.34 5.88346 12.2605C5.91643 12.181 5.96474 12.1088 6.02563 12.048L8.5736 9.50004L6.02563 6.95208C5.90278 6.82923 5.83377 6.66261 5.83377 6.48887C5.83377 6.31513 5.90278 6.14851 6.02563 6.02566C6.14848 5.90281 6.3151 5.8338 6.48884 5.8338C6.66257 5.8338 6.8292 5.90281 6.95205 6.02566L9.50001 8.57363L12.048 6.02566C12.1088 5.96483 12.181 5.91658 12.2605 5.88366C12.34 5.85074 12.4252 5.8338 12.5112 5.8338C12.5972 5.8338 12.6824 5.85074 12.7619 5.88366C12.8413 5.91658 12.9136 5.96483 12.9744 6.02566C13.0352 6.08649 13.0835 6.15871 13.1164 6.23818C13.1493 6.31766 13.1663 6.40284 13.1663 6.48887C13.1663 6.57489 13.1493 6.66008 13.1164 6.73956C13.0835 6.81903 13.0352 6.89125 12.9744 6.95208L10.4264 9.50004L12.9744 12.048V12.048Z" fill="white"/>
</svg>
