<svg width="28" height="28" viewBox="0 0 28 28" fill="none" xmlns="http://www.w3.org/2000/svg">
<path d="M9.65517 2.89667V5.79322H18.3448V2.89667C18.3448 2.6406 18.2431 2.39502 18.062 2.21395C17.881 2.03288 17.6354 1.93115 17.3793 1.93115H10.6207C10.3646 1.93115 10.119 2.03288 9.93796 2.21395C9.75689 2.39502 9.65517 2.6406 9.65517 2.89667V2.89667Z" fill="white"/>
<path d="M3.86208 4.82782V5.79334H24.1379V4.82782C24.1379 4.57175 24.0362 4.32617 23.8551 4.1451C23.6741 3.96403 23.4285 3.8623 23.1724 3.8623H4.82759C4.57152 3.8623 4.32594 3.96403 4.14487 4.1451C3.9638 4.32617 3.86208 4.57175 3.86208 4.82782V4.82782ZM5.79311 7.72437L7.54263 24.34C7.59249 24.8145 7.81632 25.2539 8.17094 25.5732C8.52555 25.8925 8.98584 26.0692 9.46304 26.0692H18.5379C19.0151 26.0692 19.4754 25.8925 19.83 25.5732C20.1847 25.2539 20.4085 24.8145 20.4584 24.34L22.2069 7.72437H5.79311ZM10.2123 24.1353C10.0858 24.1452 9.9587 24.13 9.83812 24.0907C9.71754 24.0514 9.6059 23.9887 9.50958 23.9062C9.41326 23.8237 9.33416 23.723 9.2768 23.6099C9.21945 23.4968 9.18496 23.3735 9.17532 23.247L8.2098 10.6953C8.19009 10.44 8.2726 10.1873 8.43918 9.99283C8.60577 9.79836 8.84278 9.67803 9.09808 9.65831C9.22477 9.6471 9.35243 9.66131 9.47356 9.70012C9.59468 9.73893 9.70684 9.80154 9.80344 9.88429C9.90003 9.96703 9.97912 10.0682 10.0361 10.182C10.093 10.2957 10.1267 10.4197 10.135 10.5466L11.1006 23.0983C11.1203 23.3536 11.0378 23.6063 10.8712 23.8007C10.7046 23.9952 10.4676 24.1155 10.2123 24.1353V24.1353ZM14.9655 23.1727C14.9655 23.4287 14.8638 23.6743 14.6827 23.8554C14.5017 24.0364 14.2561 24.1382 14 24.1382C13.7439 24.1382 13.4984 24.0364 13.3173 23.8554C13.1362 23.6743 13.0345 23.4287 13.0345 23.1727V10.6209C13.0345 10.3649 13.1362 10.1193 13.3173 9.9382C13.4984 9.75713 13.7439 9.65541 14 9.65541C14.2561 9.65541 14.5017 9.75713 14.6827 9.9382C14.8638 10.1193 14.9655 10.3649 14.9655 10.6209V23.1727ZM18.8247 23.247C18.8149 23.3734 18.7804 23.4967 18.723 23.6097C18.6656 23.7228 18.5865 23.8234 18.4902 23.9059C18.3939 23.9884 18.2823 24.0511 18.1618 24.0904C18.0412 24.1298 17.9141 24.145 17.7877 24.1353C17.6613 24.1255 17.5381 24.0909 17.425 24.0335C17.312 23.9761 17.2113 23.897 17.1288 23.8008C17.0463 23.7045 16.9836 23.5929 16.9443 23.4723C16.9049 23.3518 16.8897 23.2247 16.8995 23.0983L17.865 10.5466C17.8728 10.4195 17.9061 10.2953 17.9629 10.1813C18.0197 10.0673 18.0988 9.96586 18.1955 9.88301C18.2922 9.80017 18.4046 9.73759 18.5259 9.69899C18.6473 9.66039 18.7751 9.64656 18.9019 9.65831C19.1572 9.67803 19.3942 9.79836 19.5608 9.99283C19.7274 10.1873 19.8099 10.44 19.7902 10.6953L18.8247 23.247V23.247Z" fill="white"/>
</svg>
