<svg width="19" height="19" viewBox="0 0 19 19" fill="none" xmlns="http://www.w3.org/2000/svg">
<path d="M18.5567 13.6128C18.4777 13.3892 18.3135 13.2059 18.1 13.1029C17.8865 12.9998 17.6408 12.9853 17.4167 13.0626L14.9467 13.8265C14.3213 14.3965 14.0838 14.2501 9.50001 14.2501C9.39503 14.2501 9.29435 14.2084 9.22011 14.1341C9.14588 14.0599 9.10418 13.9592 9.10418 13.8542C9.10418 13.7493 9.14588 13.6486 9.22011 13.5744C9.29435 13.5001 9.39503 13.4584 9.50001 13.4584C14.25 13.4584 14.0877 13.5495 14.4361 13.2011C14.5688 13.0545 14.6434 12.8645 14.6458 12.6667C14.6458 12.4568 14.5624 12.2554 14.414 12.107C14.2655 11.9585 14.0641 11.8751 13.8542 11.8751H9.61876C9.06855 11.8751 8.60939 11.0834 7.00626 11.0834H4.35418V15.208L4.8648 15.497C6.31716 16.3342 7.94174 16.8284 9.61434 16.9416C11.2869 17.0548 12.9633 16.784 14.5152 16.1501L18.0777 14.7132C18.2797 14.6218 18.4406 14.4586 18.5291 14.2552C18.6176 14.0519 18.6274 13.823 18.5567 13.6128V13.6128ZM0.395844 16.2292H3.56251V10.2917H0.395844V16.2292ZM1.61501 14.4955C1.63735 14.4413 1.67144 14.3928 1.71482 14.3534C1.75819 14.314 1.80977 14.2848 1.86582 14.2677C1.92188 14.2507 1.98102 14.2463 2.03898 14.2549C2.09693 14.2635 2.15226 14.2848 2.20096 14.3174C2.24967 14.35 2.29053 14.393 2.32061 14.4432C2.35069 14.4935 2.36924 14.5498 2.3749 14.6082C2.38057 14.6665 2.37323 14.7253 2.35339 14.7804C2.33356 14.8356 2.30174 14.8856 2.26022 14.927C2.19541 14.9915 2.11026 15.0316 2.01923 15.0404C1.9282 15.0493 1.83692 15.0263 1.76089 14.9755C1.68487 14.9247 1.62879 14.8491 1.6022 14.7616C1.57561 14.6741 1.58013 14.58 1.61501 14.4955V14.4955ZM12.2708 9.89592C13.0537 9.89592 13.819 9.66376 14.47 9.22882C15.1209 8.79387 15.6283 8.17566 15.9279 7.45237C16.2275 6.72908 16.3059 5.93319 16.1531 5.16535C16.0004 4.39751 15.6234 3.6922 15.0698 3.13862C14.5162 2.58504 13.8109 2.20804 13.0431 2.05531C12.2752 1.90257 11.4793 1.98096 10.7561 2.28056C10.0328 2.58016 9.41456 3.08751 8.97961 3.73845C8.54466 4.3894 8.31251 5.1547 8.31251 5.93758C8.31251 6.9874 8.72955 7.99422 9.47188 8.73655C10.2142 9.47888 11.221 9.89592 12.2708 9.89592ZM12.6667 6.33342H11.875C11.5601 6.33342 11.258 6.20831 11.0353 5.98561C10.8126 5.76291 10.6875 5.46086 10.6875 5.14592C10.6875 4.83097 10.8126 4.52893 11.0353 4.30623C11.258 4.08353 11.5601 3.95842 11.875 3.95842V3.56258C11.875 3.4576 11.9167 3.35692 11.9909 3.28269C12.0652 3.20845 12.1659 3.16675 12.2708 3.16675C12.3758 3.16675 12.4765 3.20845 12.5507 3.28269C12.625 3.35692 12.6667 3.4576 12.6667 3.56258V3.95842H13.4583C13.5633 3.95842 13.664 4.00012 13.7382 4.07435C13.8125 4.14859 13.8542 4.24927 13.8542 4.35425C13.8542 4.45923 13.8125 4.55991 13.7382 4.63415C13.664 4.70838 13.5633 4.75008 13.4583 4.75008H11.875C11.77 4.75008 11.6693 4.79179 11.5951 4.86602C11.5209 4.94025 11.4792 5.04094 11.4792 5.14592C11.4792 5.2509 11.5209 5.35158 11.5951 5.42581C11.6693 5.50005 11.77 5.54175 11.875 5.54175H12.6667C12.9816 5.54175 13.2837 5.66686 13.5064 5.88956C13.7291 6.11226 13.8542 6.41431 13.8542 6.72925C13.8542 7.04419 13.7291 7.34624 13.5064 7.56894C13.2837 7.79164 12.9816 7.91675 12.6667 7.91675V8.31258C12.6667 8.41756 12.625 8.51825 12.5507 8.59248C12.4765 8.66671 12.3758 8.70842 12.2708 8.70842C12.1659 8.70842 12.0652 8.66671 11.9909 8.59248C11.9167 8.51825 11.875 8.41756 11.875 8.31258V7.91675H11.0833C10.9784 7.91675 10.8777 7.87505 10.8034 7.80081C10.7292 7.72658 10.6875 7.6259 10.6875 7.52092C10.6875 7.41594 10.7292 7.31525 10.8034 7.24102C10.8777 7.16679 10.9784 7.12508 11.0833 7.12508H12.6667C12.7717 7.12508 12.8723 7.08338 12.9466 7.00915C13.0208 6.93491 13.0625 6.83423 13.0625 6.72925C13.0625 6.62427 13.0208 6.52359 12.9466 6.44935C12.8723 6.37512 12.7717 6.33342 12.6667 6.33342Z" fill="white"/>
</svg>
