<svg width="17" height="17" viewBox="0 0 17 17" fill="none" xmlns="http://www.w3.org/2000/svg">
<path d="M8.5 2.125C12.0208 2.125 14.875 4.97918 14.875 8.5C14.875 12.0208 12.0208 14.875 8.5 14.875C4.97918 14.875 2.125 12.0208 2.125 8.5C2.125 4.97918 4.97918 2.125 8.5 2.125ZM10.48 10.2707C9.9929 10.815 9.28667 11.1562 8.50003 11.1562C7.71339 11.1562 7.00716 10.815 6.52002 10.2707C6.32434 10.0521 5.98849 10.0335 5.76986 10.2291C5.55124 10.4248 5.53264 10.7607 5.72831 10.9793C6.40848 11.7392 7.39861 12.2187 8.50003 12.2187C9.60145 12.2187 10.5916 11.7392 11.2717 10.9793C11.4675 10.7607 11.4489 10.4248 11.2302 10.2291C11.0115 10.0335 10.6757 10.0521 10.48 10.2707ZM6.64066 6.64062C6.20056 6.64062 5.84378 6.9974 5.84378 7.4375C5.84378 7.8776 6.20056 8.23438 6.64066 8.23438C7.08076 8.23438 7.43753 7.8776 7.43753 7.4375C7.43753 6.9974 7.08076 6.64062 6.64066 6.64062ZM10.3594 6.64062C9.91931 6.64062 9.56253 6.9974 9.56253 7.4375C9.56253 7.8776 9.91931 8.23438 10.3594 8.23438C10.7995 8.23438 11.1562 7.8776 11.1562 7.4375C11.1562 6.9974 10.7995 6.64062 10.3594 6.64062Z" fill="white"/>
</svg>
