<svg width="16" height="16" viewBox="0 0 16 16" fill="none" xmlns="http://www.w3.org/2000/svg">
<path d="M8.66232 0.429953L10.5634 4.46137C10.6163 4.57355 10.6945 4.67058 10.7912 4.7441C10.8879 4.81763 11.0002 4.86544 11.1185 4.88341L15.3688 5.52998C15.5049 5.55068 15.6328 5.61084 15.738 5.70367C15.8432 5.79649 15.9215 5.91827 15.964 6.05523C16.0065 6.1922 16.0115 6.33887 15.9785 6.47867C15.9455 6.61846 15.8757 6.7458 15.7772 6.84627L12.7011 9.98422C12.5271 10.1617 12.4483 10.4171 12.4888 10.667L13.2149 15.0981C13.2381 15.24 13.2229 15.3859 13.1711 15.5192C13.1193 15.6526 13.0328 15.7681 12.9216 15.8527C12.8103 15.9373 12.6786 15.9876 12.5414 15.998C12.4042 16.0084 12.267 15.9784 12.1453 15.9114L8.34314 13.8189C8.23728 13.7608 8.11954 13.7304 8 13.7304C7.88046 13.7304 7.76272 13.7608 7.65686 13.8189L3.85471 15.9114C3.73297 15.9784 3.59576 16.0084 3.45858 15.998C3.3214 15.9876 3.18973 15.9373 3.07845 15.8527C2.96717 15.7681 2.88073 15.6526 2.82889 15.5192C2.77705 15.3859 2.76189 15.24 2.78512 15.0981L3.5112 10.667C3.53141 10.5437 3.52265 10.4171 3.48566 10.2982C3.44867 10.1792 3.38458 10.0715 3.29891 9.98422L0.222829 6.84627C0.124272 6.7458 0.0545436 6.61846 0.0215334 6.47867C-0.0114768 6.33887 -0.00645167 6.1922 0.0360403 6.05523C0.0785323 5.91827 0.156795 5.79649 0.261975 5.70367C0.367155 5.61084 0.495054 5.55068 0.631204 5.52998L4.88154 4.88341C4.99982 4.86544 5.11214 4.81763 5.20884 4.7441C5.30554 4.67058 5.3837 4.57355 5.4366 4.46137L7.33768 0.429953C7.61042 -0.143318 8.39179 -0.143318 8.66232 0.429953Z" fill="yellow"/>
</svg>
