<svg width="15" height="15" viewBox="0 0 15 15" fill="none" xmlns="http://www.w3.org/2000/svg">
<path d="M12.931 6.48627L8.64052 6.57214L5.32345 3.25507C5.27558 3.20698 5.21867 3.16884 5.156 3.14283C5.09333 3.11682 5.02613 3.10346 4.95828 3.10352H4.55638C4.51228 3.10352 4.46891 3.1148 4.4304 3.13628C4.39188 3.15777 4.3595 3.18875 4.33633 3.22627C4.31316 3.2638 4.29998 3.30663 4.29802 3.35068C4.29607 3.39474 4.30542 3.43857 4.32517 3.478L5.89966 6.62696L1.94586 6.7061L1.52948 5.76886C1.41621 5.51386 1.03448 5.59455 1.03448 5.87386V9.12627C1.03448 9.40558 1.41621 9.48679 1.52948 9.23127L1.94586 8.29403L5.89966 8.37317L4.32517 11.5221C4.30542 11.5616 4.29607 11.6054 4.29802 11.6495C4.29998 11.6935 4.31316 11.7363 4.33633 11.7739C4.3595 11.8114 4.39188 11.8424 4.4304 11.8639C4.46891 11.8853 4.51228 11.8966 4.55638 11.8966H4.95828C5.09535 11.8966 5.22724 11.8423 5.32397 11.7451L8.64104 8.428L12.931 8.51386C13.0642 8.51386 13.196 8.48764 13.319 8.43669C13.442 8.38574 13.5538 8.31107 13.6479 8.21693C13.742 8.12279 13.8167 8.01103 13.8677 7.88803C13.9186 7.76503 13.9448 7.6332 13.9448 7.50007C13.9448 7.36693 13.9186 7.2351 13.8677 7.11211C13.8167 6.98911 13.742 6.87735 13.6479 6.78321C13.5538 6.68907 13.442 6.61439 13.319 6.56344C13.196 6.5125 13.0642 6.48627 12.931 6.48627V6.48627Z" fill="white"/>
</svg>
