<svg width="16" height="16" viewBox="0 0 16 16" fill="none" xmlns="http://www.w3.org/2000/svg">
<path d="M15.278 0.325287L0.597251 6.08916C0.317955 6.19882 0.307811 6.59034 0.581027 6.71431L3.82653 8.18708C3.91444 8.22701 3.98119 8.30241 4.01012 8.3945L5.40256 12.8258C5.4729 13.0495 5.74343 13.1363 5.93072 12.9952L8.35444 11.1692C8.47018 11.082 8.62848 11.0779 8.74861 11.1589L12.8135 13.9012C13.0163 14.038 13.2928 13.922 13.3373 13.6815L15.7359 0.702983C15.7844 0.441031 15.526 0.227943 15.278 0.325287ZM6.38186 8.81559L5.94391 11.3053L4.81338 7.74052L12.5641 2.92986L6.38186 8.81559ZM2.59738 9.46577C2.47239 9.34077 2.26989 9.34077 2.14487 9.46577L0.351907 11.2586C0.226915 11.3836 0.226915 11.5861 0.351907 11.7111C0.476899 11.8361 0.679395 11.8361 0.804423 11.7111L2.59738 9.91825C2.72237 9.79325 2.72237 9.59076 2.59738 9.46577ZM3.51754 13.3592L1.72474 15.152C1.59972 15.277 1.59972 15.4795 1.72474 15.6045C1.84973 15.7295 2.05223 15.7295 2.17722 15.6045L3.97005 13.8117C4.09504 13.6867 4.09504 13.4842 3.97005 13.3592C3.84503 13.2342 3.64253 13.2342 3.51754 13.3592Z" fill="white"/>
<path d="M8.73207 13.3594L6.9391 15.1522C6.81408 15.2772 6.81408 15.4797 6.9391 15.6047C7.0641 15.7297 7.26659 15.7297 7.39159 15.6047L9.18458 13.8118C9.30957 13.6869 9.30957 13.4844 9.18458 13.3594C9.05955 13.2344 8.85706 13.2344 8.73207 13.3594Z" fill="white"/>
<path d="M15.278 0.325287L0.597251 6.08916C0.317955 6.19882 0.307811 6.59034 0.581027 6.71431L3.82653 8.18708C3.91444 8.22701 3.98119 8.30241 4.01012 8.3945L5.40256 12.8258C5.4729 13.0495 5.74343 13.1363 5.93072 12.9952L8.35444 11.1692C8.47018 11.082 8.62848 11.0779 8.74861 11.1589L12.8135 13.9012C13.0163 14.038 13.2928 13.922 13.3373 13.6815L15.7359 0.702983C15.7844 0.441031 15.526 0.227943 15.278 0.325287ZM6.38186 8.81559L5.94391 11.3053L4.81338 7.74052L12.5641 2.92986L6.38186 8.81559ZM2.59738 9.46577C2.47239 9.34077 2.26989 9.34077 2.14487 9.46577L0.351907 11.2586C0.226915 11.3836 0.226915 11.5861 0.351907 11.7111C0.476899 11.8361 0.679395 11.8361 0.804423 11.7111L2.59738 9.91825C2.72237 9.79325 2.72237 9.59076 2.59738 9.46577ZM3.51754 13.3592L1.72474 15.152C1.59972 15.277 1.59972 15.4795 1.72474 15.6045C1.84973 15.7295 2.05223 15.7295 2.17722 15.6045L3.97005 13.8117C4.09504 13.6867 4.09504 13.4842 3.97005 13.3592C3.84503 13.2342 3.64253 13.2342 3.51754 13.3592Z" fill="white"/>
<path d="M8.73207 13.3594L6.9391 15.1522C6.81408 15.2772 6.81408 15.4797 6.9391 15.6047C7.0641 15.7297 7.26659 15.7297 7.39159 15.6047L9.18458 13.8118C9.30957 13.6869 9.30957 13.4844 9.18458 13.3594C9.05955 13.2344 8.85706 13.2344 8.73207 13.3594Z" fill="white"/>
</svg>
