<svg width="16" height="16" viewBox="0 0 16 16" fill="none" xmlns="http://www.w3.org/2000/svg">
<g clip-path="url(#clip0_719_496)">
<path d="M8 0.701172L16 3.90116V4.96783H14.9333C14.9333 5.11227 14.8764 5.23727 14.7625 5.34283C14.6486 5.44838 14.5139 5.50116 14.3583 5.50116H1.64167C1.48611 5.50116 1.35139 5.44838 1.2375 5.34283C1.12361 5.23727 1.06667 5.11227 1.06667 4.96783H0V3.90116L8 0.701172ZM2.13333 6.03449H4.26667V12.4345H5.33333V6.03449H7.46667V12.4345H8.53333V6.03449H10.6667V12.4345H11.7333V6.03449H13.8667V12.4345H14.3583C14.5139 12.4345 14.6486 12.4873 14.7625 12.5928C14.8764 12.6984 14.9333 12.8234 14.9333 12.9678V13.5011H1.06667V12.9678C1.06667 12.8234 1.12361 12.6984 1.2375 12.5928C1.35139 12.4873 1.48611 12.4345 1.64167 12.4345H2.13333V6.03449V6.03449ZM15.425 14.0345C15.5806 14.0345 15.7153 14.0872 15.8292 14.1928C15.9431 14.2984 16 14.4234 16 14.5678V15.6345H0V14.5678C0 14.4234 0.0569444 14.2984 0.170833 14.1928C0.284722 14.0872 0.419444 14.0345 0.575 14.0345H15.425V14.0345Z" fill="white"/>
</g>
<defs>
<clipPath id="clip0_719_496">
<rect width="16" height="16" fill="white"/>
</clipPath>
</defs>
</svg>
