<svg width="120" height="120" viewBox="0 0 120 120" fill="none" xmlns="http://www.w3.org/2000/svg">
<path d="M26.0001 5.1832e-05H94.0001C97.4163 -0.00677356 100.8 0.661078 103.958 1.96528C107.115 3.26949 109.984 5.18437 112.4 7.60005C114.816 10.0157 116.731 12.8847 118.035 16.0422C119.339 19.1998 120.007 22.5838 120 26.0001V94.0001C120.007 97.4163 119.339 100.8 118.035 103.958C116.731 107.115 114.816 109.984 112.4 112.4C109.984 114.816 107.115 116.731 103.958 118.035C100.8 119.339 97.4163 120.007 94.0001 120H26.0001C22.5838 120.007 19.1998 119.339 16.0422 118.035C12.8847 116.731 10.0157 114.816 7.60005 112.4C5.18437 109.984 3.26949 107.115 1.96528 103.958C0.661078 100.8 -0.00677356 97.4163 5.1832e-05 94.0001V26.0001C-0.0067762 22.5838 0.661073 19.1998 1.96528 16.0422C3.26948 12.8847 5.18437 10.0157 7.60005 7.60005C10.0157 5.18437 12.8847 3.26948 16.0422 1.96528C19.1998 0.661073 22.5838 -0.0067762 26.0001 5.1832e-05V5.1832e-05Z" fill="url(#paint0_linear_705_260)"/>
<g clip-path="url(#clip0_705_260)">
<path d="M36.1938 44.7739H24.6238V53.0614H36.1938V44.7739Z" fill="#EFCF8F"/>
<path d="M38.5338 42.4667C37.1688 46.8867 34.1301 50.2504 30.4738 50.2504C26.8176 50.2504 23.6651 46.8054 22.3001 42.3854C20.4963 41.1017 20.0901 36.4704 21.6013 36.5192C21.9426 30.0842 25.7776 25.0142 30.4738 25.0142C35.1701 25.0142 38.6313 30.1004 38.9563 36.5517C40.6951 35.8692 40.5163 41.2804 38.5338 42.4667Z" fill="#FFE09C"/>
<path d="M37.7861 39.8179H38.2899C39.1836 36.6004 39.7361 32.9117 39.4274 29.9379C38.6961 25.2904 35.3486 22.9992 31.0261 23.3729C28.3124 23.6329 26.4111 24.4779 25.5499 26.0704C23.3561 24.7217 21.7961 25.4529 21.1624 29.2554C20.6586 32.8792 21.1786 36.6004 21.9099 39.8992L22.5274 39.8504C21.3411 31.8879 31.2049 27.9392 36.3886 33.8379L35.9499 32.1317C37.5749 33.7404 38.1599 36.6167 37.7861 39.8179Z" fill="#3A556D"/>
<path d="M37.0875 50.25C37.0712 57.8387 33.48 67.4425 30.4087 77.0462C27.3375 67.4425 23.7462 57.8387 23.73 50.25L28.1987 57.01L30.4087 53.0775L32.6187 57.01L37.0875 50.25Z" fill="#F2F2F0"/>
<path d="M34.1136 77.0305H26.6223L29.1736 57.4492H31.5623L34.1136 77.0305Z" fill="#DA6C62"/>
<path d="M31.5951 57.4489H29.2226L26.5251 53.0776H34.2927L31.5951 57.4489Z" fill="#DA6C62"/>
<path d="M30.4087 53.0614L28.1987 57.0102L23.73 50.2502L24.6237 48.8364L30.4087 53.0614Z" fill="#E0E0DE"/>
<path d="M37.0874 50.2502L32.6187 57.0102L30.4087 53.0614L36.1937 48.8364L37.0874 50.2502Z" fill="#E0E0DE"/>
<path d="M22.0725 62.795L23.145 58.5375L20.9675 57.4L20.5938 52.6063L23.73 50.25C23.7463 57.8387 27.3375 67.4425 30.4087 77.0462C26.9475 72.8375 24.1037 68.1575 22.0725 62.795Z" fill="#50A0A0"/>
<path d="M30.4087 77.0301H10.5025C8.95871 77.0301 7.78871 75.6488 8.03246 74.1376L10.145 61.1051C10.4212 59.3501 11.445 57.8063 12.9562 56.8638C15.0687 55.5313 17.2137 54.0363 20.5937 52.6226L20.9675 57.4163L23.145 58.5538L22.0725 62.8113C24.1037 68.1576 26.9475 72.8376 30.4087 77.0301Z" fill="#5BADAF"/>
<path d="M39.8499 57.4001L37.6724 58.5376L38.7449 62.7951C36.7137 68.1576 33.8699 72.8376 30.4087 77.0301C33.4799 67.4264 37.0712 57.8389 37.0874 50.2339L40.2237 52.6064L39.8499 57.4001Z" fill="#50A0A0"/>
<path d="M30.4087 77.0302C33.8699 72.8377 36.7137 68.1577 38.7449 62.7952L37.6724 58.5377L39.8499 57.4002L40.2237 52.6064C43.6037 54.0202 45.7487 55.5152 47.8612 56.8477C49.3562 57.7902 50.3799 59.3339 50.6724 61.0889L52.7849 74.1214C53.0287 75.6327 51.8587 77.0139 50.3149 77.0139H30.4087V77.0302Z" fill="#5BADAF"/>
<path d="M95.3925 44.7734H83.8225V53.0609H95.3925V44.7734Z" fill="#EFCF8F"/>
<path d="M97.7326 42.4662C96.3676 46.8862 93.3288 50.2499 89.6726 50.2499C86.0163 50.2499 82.8638 46.8049 81.4988 42.3849C79.6951 41.1012 79.2888 36.4699 80.8001 36.5187C81.1413 30.0837 84.9763 25.0137 89.6726 25.0137C94.3688 25.0137 97.8301 30.0999 98.1551 36.5512C99.8938 35.8687 99.7151 41.2799 97.7326 42.4662Z" fill="#FFE09C"/>
<path d="M96.9849 39.8174H97.4886C98.3824 36.5999 98.9349 32.9112 98.6261 29.9374C97.8949 25.2899 94.5474 22.9987 90.2249 23.3724C87.5111 23.6324 85.6099 24.4774 84.7486 26.0699C82.5549 24.7212 80.9949 25.4524 80.3611 29.2549C79.8574 32.8787 80.3774 36.5999 81.1086 39.8987L81.7261 39.8499C80.5399 31.8874 90.4036 27.9387 95.5874 33.8374L95.1486 32.1312C96.7736 33.7399 97.3586 36.6162 96.9849 39.8174Z" fill="#3A556D"/>
<path d="M96.2862 50.25C96.27 57.8387 92.6787 67.4425 89.6075 77.0462C86.5362 67.4588 82.945 57.855 82.9287 50.25L87.3975 57.01L89.6075 53.0775L91.8175 57.01L96.2862 50.25Z" fill="#F2F2F0"/>
<path d="M93.3125 77.03H85.8213L88.3888 57.4487H90.7613L93.3125 77.03Z" fill="#DA6C62"/>
<path d="M90.7936 57.4489H88.4211L85.7236 53.0776H93.4911L90.7936 57.4489Z" fill="#DA6C62"/>
<path d="M89.6075 53.0609L87.3975 57.0097L82.9287 50.2497L83.8225 48.8359L89.6075 53.0609Z" fill="#E0E0DE"/>
<path d="M96.2862 50.2497L91.8174 57.0097L89.6074 53.0609L95.3924 48.8359L96.2862 50.2497Z" fill="#E0E0DE"/>
<path d="M81.2712 62.795L82.3437 58.5375L80.1662 57.4L79.7925 52.6063L82.9287 50.25C82.945 57.8387 86.5362 67.4425 89.6075 77.0462C86.1462 72.8375 83.3025 68.1575 81.2712 62.795Z" fill="#50A0A0"/>
<path d="M89.6074 77.0301H69.7012C68.1574 77.0301 66.9874 75.6488 67.2312 74.1376L69.3437 61.1051C69.6199 59.3501 70.6437 57.8063 72.1549 56.8638C74.2674 55.5313 76.4124 54.0363 79.7924 52.6226L80.1662 57.4163L82.3437 58.5538L81.2712 62.8113C83.3024 68.1576 86.1462 72.8376 89.6074 77.0301Z" fill="#5BADAF"/>
<path d="M99.0487 57.4001L96.8712 58.5376L97.9437 62.7951C95.9124 68.1576 93.0687 72.8376 89.6074 77.0301C92.6787 67.4264 96.2699 57.8389 96.2862 50.2339L99.4224 52.6064L99.0487 57.4001Z" fill="#50A0A0"/>
<path d="M89.6074 77.0297C93.0687 72.8372 95.9124 68.1572 97.9437 62.7947L96.8712 58.5372L99.0487 57.3997L99.4224 52.606C102.802 54.0197 104.947 55.5147 107.06 56.8472C108.555 57.7897 109.579 59.3335 109.871 61.0885L111.984 74.121C112.227 75.6322 111.057 77.0135 109.514 77.0135H89.6074V77.0297Z" fill="#5BADAF"/>
<path d="M76.3637 80.8811H43.6362L45.83 52.9798C46.415 45.5861 52.5737 39.8823 60 39.8823C67.41 39.8823 73.585 45.5861 74.17 52.9798L76.3637 80.8811Z" fill="#3A556D"/>
<path d="M60.0325 96.6436C58.2937 88.4049 54.8812 77.4036 55.1087 73.0161C55.1087 75.7136 57.3025 77.8911 59.9837 77.8911C62.6812 77.8911 64.8587 75.7136 64.8587 73.0161H64.875C65.135 77.3874 61.7875 88.3886 60.0325 96.6436Z" fill="#F2F2F0"/>
<path d="M60.0325 96.6437H38.81C38.0462 96.6437 37.4612 95.945 37.6075 95.1975L40.63 78.8663C40.825 76.3475 47.4712 73.4225 51.6962 73H55.125C54.8812 77.4037 58.2775 88.405 60.0325 96.6437ZM81.1737 96.6762L60.0325 96.6437C61.8037 88.3725 65.1512 77.4037 64.8912 73H68.3037C72.545 73.4225 79.1912 76.3475 79.3862 78.8663L82.4087 95.1975C82.5387 95.945 81.9537 96.6437 81.1737 96.6762Z" fill="#F9C76E"/>
<path d="M67.2799 80.0848L65.3786 79.776L66.9061 81.726C64.5336 86.8448 63.3636 91.1185 60.0486 96.6435C61.7874 88.3885 65.1511 77.3873 64.8911 72.9998C64.8911 72.951 64.8911 72.9023 64.8749 72.8698C64.8099 72.0573 64.6149 71.5048 64.2574 71.2448C64.4686 71.2935 64.6799 71.3585 64.8749 71.4235C66.3536 71.846 67.4424 72.3985 68.3036 73.016C68.3199 75.161 67.8974 77.566 67.2799 80.0848ZM53.1099 81.726L54.6211 79.776L52.7199 80.0848C52.0861 77.566 51.6636 75.161 51.6799 72.9998C52.5411 72.3823 53.6299 71.8298 55.1086 71.4073C55.3036 71.3423 55.5149 71.2935 55.7261 71.2285C55.3524 71.5048 55.1574 72.1223 55.1086 72.9835C55.1086 72.9835 55.1086 72.9835 55.1086 72.9998C54.8649 77.4035 58.2774 88.3885 60.0161 96.6273C56.7174 91.1023 55.4824 86.8448 53.1099 81.726Z" fill="#E8B360"/>
<path d="M64.875 67.6046V72.9996C64.875 75.6971 62.6975 77.8746 60 77.8746C57.3025 77.8746 55.125 75.6971 55.125 72.9996C55.125 72.9996 55.125 72.9996 55.125 72.9834V67.5884H64.875V67.6046Z" fill="#EFCF8F"/>
<path d="M70.2536 61.0075C70.2536 67.9787 65.1024 72.4312 60.0324 72.4312C54.9624 72.4312 49.8274 67.8487 49.8274 60.8612C49.8274 60.4712 49.8111 59.3337 49.7949 58.2287C49.7461 55.255 51.2249 52.4437 53.7761 50.9C55.5149 49.8437 57.6274 49.0475 60.0324 47.585C61.1049 52.1187 62.4861 53.435 67.9949 55.2712C69.3436 55.71 70.2536 56.9775 70.2536 58.3912C70.2536 59.4962 70.2536 60.6337 70.2536 61.0075Z" fill="#FFE09C"/>
</g>
<defs>
<linearGradient id="paint0_linear_705_260" x1="60.0001" y1="120" x2="60.0001" y2="5.72205e-05" gradientUnits="userSpaceOnUse">
<stop stop-color="#DCDCDC"/>
<stop offset="1" stop-color="white"/>
</linearGradient>
<clipPath id="clip0_705_260">
<rect width="104" height="104" fill="white" transform="translate(8 8)"/>
</clipPath>
</defs>
</svg>
