<svg width="12" height="12" viewBox="0 0 12 12" fill="none" xmlns="http://www.w3.org/2000/svg">
<path d="M5.99973 7.125C7.44947 7.125 8.62473 5.94975 8.62473 4.5C8.62473 3.05025 7.44947 1.875 5.99973 1.875C4.54998 1.875 3.37473 3.05025 3.37473 4.5C3.37473 5.94975 4.54998 7.125 5.99973 7.125Z" fill="#FFA200"/>
<path d="M5.99972 0.375C5.15035 0.374674 4.3216 0.636655 3.62674 1.12514C2.93189 1.61362 2.40483 2.30476 2.11762 3.1041C1.83041 3.90344 1.79705 4.77198 2.02211 5.59099C2.24717 6.41001 2.71966 7.13954 3.375 7.67988V11.25C3.37499 11.3139 3.39133 11.3768 3.42246 11.4326C3.45358 11.4885 3.49847 11.5354 3.55285 11.569C3.60723 11.6026 3.66929 11.6218 3.73316 11.6246C3.79702 11.6275 3.86055 11.614 3.91772 11.5854L5.99968 10.5443L8.08232 11.5854C8.13949 11.614 8.20302 11.6275 8.26687 11.6246C8.33073 11.6217 8.39279 11.6026 8.44716 11.569C8.50153 11.5354 8.54641 11.4884 8.57753 11.4326C8.60866 11.3768 8.625 11.3139 8.625 11.25V7.67942C9.2802 7.13901 9.75254 6.40946 9.97748 5.59047C10.2024 4.77149 10.169 3.90302 9.88171 3.10376C9.59445 2.3045 9.06739 1.61345 8.37256 1.12503C7.67773 0.636616 6.84904 0.374674 5.99972 0.375V0.375ZM5.99972 7.875C5.33221 7.875 4.67969 7.67706 4.12467 7.30621C3.56966 6.93536 3.13708 6.40826 2.88163 5.79155C2.62619 5.17485 2.55935 4.49625 2.68958 3.84157C2.8198 3.18688 3.14124 2.58552 3.61324 2.11351C4.08524 1.64151 4.68661 1.32007 5.34129 1.18985C5.99598 1.05962 6.67458 1.12646 7.29128 1.38191C7.90798 1.63735 8.43508 2.06993 8.80593 2.62495C9.17678 3.17997 9.37472 3.83249 9.37472 4.5C9.37371 5.39479 9.01781 6.25265 8.38509 6.88537C7.75238 7.51809 6.89452 7.87399 5.99972 7.875V7.875Z" fill="#FFA200"/>
</svg>
