<svg width="17" height="17" viewBox="0 0 17 17" fill="none" xmlns="http://www.w3.org/2000/svg">
<path d="M8.49999 1.41663C6.99762 1.41831 5.55726 2.01588 4.49492 3.07822C3.43258 4.14056 2.83502 5.58092 2.83333 7.08329C2.83333 9.38892 4.50712 11.3035 6.28008 13.3301C6.84108 13.9718 7.42191 14.6355 7.93899 15.307C8.00517 15.3929 8.09015 15.4624 8.18741 15.5102C8.28467 15.5581 8.39161 15.5829 8.49999 15.5829C8.60838 15.5829 8.71532 15.5581 8.81258 15.5102C8.90984 15.4624 8.99482 15.3929 9.06099 15.307C9.57808 14.6355 10.1589 13.9718 10.7199 13.3301C12.4929 11.3035 14.1667 9.38892 14.1667 7.08329C14.165 5.58092 13.5674 4.14056 12.5051 3.07822C11.4427 2.01588 10.0024 1.41831 8.49999 1.41663V1.41663ZM8.49999 9.20829C8.07971 9.20829 7.66886 9.08366 7.31941 8.85017C6.96995 8.61667 6.69759 8.28479 6.53675 7.89649C6.37591 7.5082 6.33383 7.08094 6.41583 6.66873C6.49782 6.25652 6.70021 5.87788 6.99739 5.58069C7.29458 5.2835 7.67322 5.08112 8.08543 4.99912C8.49764 4.91713 8.9249 4.95921 9.3132 5.12005C9.70149 5.28088 10.0334 5.55325 10.2669 5.90271C10.5004 6.25216 10.625 6.66301 10.625 7.08329C10.625 7.64688 10.4011 8.18738 10.0026 8.58589C9.60408 8.98441 9.06358 9.20829 8.49999 9.20829Z" fill="white"/>
</svg>
