<svg width="12" height="12" viewBox="0 0 12 12" fill="none" xmlns="http://www.w3.org/2000/svg">
<path d="M6 2C3.79086 2 2 3.79086 2 6C2 8.20915 3.79086 10 6 10C6.1506 10 6.2991 9.9917 6.44505 9.97555C6.71955 9.9452 6.96665 10.1431 6.99695 10.4176C7.0273 10.692 6.8294 10.9391 6.55495 10.9695C6.37255 10.9896 6.1874 11 6 11C3.23857 11 1 8.7614 1 6C1 3.23857 3.23857 1 6 1C8.18495 1 10.0414 2.40122 10.7221 4.35256C10.8131 4.6133 10.6754 4.89839 10.4147 4.98935C10.1539 5.0803 9.86885 4.94267 9.7779 4.68194C9.2329 3.1197 7.74655 2 6 2Z" fill="white"/>
<path d="M9 5C9.27615 5 9.5 5.22385 9.5 5.5V6H10C10.2761 6 10.5 6.22385 10.5 6.5C10.5 6.77615 10.2761 7 10 7H8.75C8.61195 7 8.5 7.11195 8.5 7.25C8.5 7.38805 8.61195 7.5 8.75 7.5H9.25C9.94035 7.5 10.5 8.05965 10.5 8.75C10.5 9.35495 10.0703 9.85955 9.4994 9.9751C9.4998 9.98335 9.5 9.99165 9.5 10V10.5C9.5 10.7761 9.27615 11 9 11C8.72385 11 8.5 10.7761 8.5 10.5V10H8C7.72385 10 7.5 9.77615 7.5 9.5C7.5 9.22385 7.72385 9 8 9H9.25C9.38805 9 9.5 8.88805 9.5 8.75C9.5 8.61195 9.38805 8.5 9.25 8.5H8.75C8.05965 8.5 7.5 7.94035 7.5 7.25C7.5 6.64505 7.92975 6.14045 8.5006 6.0249C8.5002 6.01665 8.5 6.00835 8.5 6V5.5C8.5 5.22385 8.72385 5 9 5ZM6.5 3.5C6.5 3.22386 6.27615 3 6 3C5.72385 3 5.5 3.22386 5.5 3.5V5.7929L4.14645 7.14645C3.95119 7.3417 3.95119 7.6583 4.14645 7.85355C4.34171 8.0488 4.65829 8.0488 4.85356 7.85355L6.35355 6.35355C6.4473 6.2598 6.5 6.1326 6.5 6V3.5Z" fill="white"/>
</svg>
