<svg width="15" height="12" viewBox="0 0 15 12" fill="none" xmlns="http://www.w3.org/2000/svg">
<path d="M13.3037 0C13.7509 0 14.1799 0.177671 14.4961 0.493929C14.8123 0.810186 14.99 1.23912 14.99 1.68638V10.3094C14.99 10.7567 14.8123 11.1856 14.4961 11.5018C14.1799 11.8181 13.7509 11.9958 13.3037 11.9958H1.68638C1.46492 11.9958 1.24563 11.9522 1.04103 11.8674C0.836426 11.7827 0.650524 11.6584 0.493929 11.5018C0.337334 11.3452 0.213116 11.1593 0.128368 10.9548C0.0436195 10.7501 0 10.5308 0 10.3094V1.68638C0 1.23912 0.177671 0.810186 0.493929 0.493929C0.810186 0.177671 1.23912 0 1.68638 0H13.3037ZM5.80862 6.37076H3.18538C3.04954 6.37076 2.9183 6.41995 2.81593 6.50922C2.71356 6.59855 2.64697 6.72186 2.6285 6.85645L2.62325 6.9329V7.30164L2.62925 7.38259C2.75067 8.21752 3.4492 8.61926 4.49701 8.61926C5.4946 8.61926 6.17591 8.25502 6.34376 7.49953L6.36476 7.38331L6.37076 7.30241V6.9329C6.37076 6.79707 6.32157 6.66579 6.23229 6.56343C6.14302 6.46107 6.01966 6.3945 5.88507 6.37598L5.80862 6.37076ZM11.8046 6.7425H8.43336L8.35691 6.74778C8.22238 6.76629 8.09912 6.83286 8.00984 6.93522C7.92062 7.03759 7.87143 7.16881 7.87143 7.30464C7.87143 7.44047 7.92062 7.57169 8.00984 7.67405C8.09912 7.77641 8.22238 7.84298 8.35691 7.8615L8.43336 7.86678H11.8046L11.8811 7.8615C12.0156 7.84298 12.1389 7.77641 12.2282 7.67405C12.3174 7.57169 12.3666 7.44047 12.3666 7.30464C12.3666 7.16881 12.3174 7.03759 12.2282 6.93522C12.1389 6.83286 12.0156 6.76629 11.8811 6.74778L11.8046 6.7425ZM4.49701 3.37426C4.19884 3.37426 3.91288 3.4927 3.70204 3.70354C3.4912 3.91438 3.37276 4.20034 3.37276 4.4985C3.37276 4.79667 3.4912 5.08264 3.70204 5.29345C3.91288 5.50433 4.19884 5.62278 4.49701 5.62278C4.79518 5.62278 5.08114 5.50433 5.29195 5.29345C5.50283 5.08264 5.62128 4.79667 5.62128 4.4985C5.62128 4.20034 5.50283 3.91438 5.29195 3.70354C5.08114 3.4927 4.79518 3.37426 4.49701 3.37426ZM11.8046 4.12226H8.43336L8.35691 4.1275C8.22238 4.14602 8.09912 4.21261 8.00984 4.31498C7.92062 4.41735 7.87143 4.54857 7.87143 4.68438C7.87143 4.82019 7.92062 4.95141 8.00984 5.05378C8.09912 5.15615 8.22238 5.22274 8.35691 5.24126L8.43336 5.24648H11.8046L11.8811 5.24126C12.0156 5.22274 12.1389 5.15615 12.2282 5.05378C12.3174 4.95141 12.3666 4.82019 12.3666 4.68438C12.3666 4.54857 12.3174 4.41735 12.2282 4.31498C12.1389 4.21261 12.0156 4.14602 11.8811 4.1275L11.8046 4.12226Z" fill="white"/>
</svg>
