<svg width="16" height="16" viewBox="0 0 16 16" fill="none" xmlns="http://www.w3.org/2000/svg">
<path d="M8 14.6667C8.73334 14.6667 9.33334 14.0667 9.33334 13.3334H6.66667C6.66667 14.0667 7.26 14.6667 8 14.6667ZM12 7.33341C12 5.28675 10.9067 3.57341 9 3.12008V2.66675C9 2.11341 8.55334 1.66675 8 1.66675C7.44667 1.66675 7 2.11341 7 2.66675V3.12008C6.84 3.16008 6.68667 3.22008 6.54001 3.27341L12 8.73342V7.33341ZM3.60667 2.23341L2.66667 3.17341L4.54 5.04675C4.19334 5.71341 4.00001 6.48675 4.00001 7.33341V10.6667L3.14001 11.5267C2.72001 11.9467 3.01334 12.6667 3.60667 12.6667H12.16L13.32 13.8267L14.26 12.8867L3.60667 2.23341Z" fill="white"/>
</svg>
