<svg width="15" height="15" viewBox="0 0 15 15" fill="none" xmlns="http://www.w3.org/2000/svg">
<path d="M8.4375 3.75C7.9375 3.75 7.5 4.1875 7.5 4.6875C7.5 5.1875 7.9375 5.625 8.4375 5.625C8.9375 5.625 9.375 5.1875 9.375 4.6875C9.375 4.1875 8.9375 3.75 8.4375 3.75ZM11.875 1.25H3.125C2.0625 1.25 1.25 2.0625 1.25 3.125V11.875C1.25 12.9375 2.0625 13.75 3.125 13.75H11.875C12.9375 13.75 13.75 12.9375 13.75 11.875V3.125C13.75 2.0625 12.9375 1.25 11.875 1.25ZM12.5 8.6875L11.3125 7.5C10.5625 6.8125 9.375 6.8125 8.6875 7.5L8.125 8.0625L6.3125 6.25C5.5625 5.5625 4.375 5.5625 3.6875 6.25L2.5 7.4375V3.125C2.5 2.75 2.75 2.5 3.125 2.5H11.875C12.25 2.5 12.5 2.75 12.5 3.125V8.6875Z" fill="white"/>
</svg>
