<svg width="16" height="16" viewBox="0 0 16 16" fill="none" xmlns="http://www.w3.org/2000/svg">
<path d="M11.5388 9.78927L10.3851 10.4392C10.2467 10.5171 10.0865 10.5476 9.92911 10.526C9.77171 10.5044 9.62571 10.4319 9.51339 10.3195L5.66291 6.46899C5.55061 6.35663 5.47813 6.21064 5.45652 6.05326C5.4349 5.89587 5.46534 5.73574 5.54319 5.59727L6.19312 4.44361C6.31011 4.23598 6.35591 3.99576 6.32353 3.75964C6.29116 3.52353 6.18237 3.3045 6.01381 3.13603L4.28471 1.40692C4.18336 1.30553 4.06303 1.2251 3.93059 1.17022C3.79815 1.11534 3.6562 1.0871 3.51284 1.0871C3.36949 1.0871 3.22753 1.11534 3.09509 1.17022C2.96265 1.2251 2.84233 1.30553 2.74098 1.40692L1.95588 2.19148C1.49677 2.65057 1.20433 3.24998 1.12506 3.89438C1.04578 4.53879 1.18422 5.19121 1.51836 5.74789L1.91229 6.40444C3.92401 9.75723 6.76349 12.5369 10.1584 14.4767L10.2362 14.5214C11.3959 15.184 12.8287 14.9909 13.7573 14.0629L14.5771 13.2431C14.6785 13.1417 14.7589 13.0214 14.8138 12.8889C14.8687 12.7565 14.8969 12.6146 14.8969 12.4712C14.8969 12.3278 14.8687 12.1859 14.8138 12.0534C14.7589 11.921 14.6785 11.8007 14.5771 11.6993L12.8469 9.96913C12.6785 9.80035 12.4594 9.69139 12.2231 9.65891C11.9869 9.62642 11.7465 9.67221 11.5388 9.78927V9.78927Z" fill="white"/>
<path d="M11.3203 7.1625H8.83752V4.67974M9.11339 6.88664L12.4237 3.57629L9.11339 6.88664Z" stroke="white" stroke-width="2" stroke-miterlimit="10"/>
</svg>
