<svg width="15" height="15" viewBox="0 0 15 15" fill="none" xmlns="http://www.w3.org/2000/svg">
<path d="M8.64939 10.9531C8.64564 10.9544 8.30001 11.0694 8.00001 11.0694C7.83439 11.0694 7.76751 11.035 7.74626 11.02C7.64126 10.9469 7.44626 10.81 7.78001 10.145L8.40501 8.89875C8.77564 8.15875 8.83064 7.44312 8.55814 6.88312C8.33564 6.425 7.90876 6.11063 7.35814 5.99813C7.1611 5.9578 6.9605 5.93749 6.75939 5.9375C5.60376 5.9375 4.82564 6.6125 4.79314 6.64125C4.73887 6.68907 4.70288 6.75424 4.69129 6.82563C4.67971 6.89703 4.69324 6.97023 4.72959 7.03276C4.76595 7.09529 4.82286 7.14327 4.89064 7.16853C4.95842 7.19378 5.03285 7.19474 5.10126 7.17125C5.10439 7.17 5.45064 7.05437 5.75064 7.05437C5.91501 7.05437 5.98126 7.08875 6.00189 7.10312C6.10751 7.17687 6.30314 7.31563 5.97001 7.97938L5.34501 9.22625C4.97376 9.96688 4.91939 10.6825 5.19189 11.2419C5.41439 11.7 5.84064 12.0144 6.39251 12.1269C6.58876 12.1662 6.79001 12.1875 6.98876 12.1875C8.14501 12.1875 8.92376 11.5125 8.95626 11.4838C9.01057 11.436 9.04666 11.371 9.05838 11.2996C9.07009 11.2283 9.05672 11.1551 9.02053 11.0925C8.98434 11.03 8.92757 10.9819 8.85989 10.9564C8.79222 10.931 8.71783 10.9298 8.64939 10.9531V10.9531Z" fill="white"/>
<path d="M8.125 5.31299C8.98794 5.31299 9.6875 4.61343 9.6875 3.75049C9.6875 2.88754 8.98794 2.18799 8.125 2.18799C7.26206 2.18799 6.5625 2.88754 6.5625 3.75049C6.5625 4.61343 7.26206 5.31299 8.125 5.31299Z" fill="white"/>
</svg>
