<svg width="19" height="19" viewBox="0 0 19 19" fill="none" xmlns="http://www.w3.org/2000/svg">
<path d="M13.6562 8.3125C16.6075 8.3125 19 10.705 19 13.6562C19 16.6075 16.6075 19 13.6562 19C10.705 19 8.3125 16.6075 8.3125 13.6562C8.3125 10.705 10.705 8.3125 13.6562 8.3125ZM13.6562 10.6875C13.3284 10.6875 13.0625 10.9533 13.0625 11.2812V13.0625H11.2812C10.9533 13.0625 10.6875 13.3284 10.6875 13.6562C10.6875 13.9841 10.9533 14.25 11.2812 14.25H13.0625V16.0312C13.0625 16.3591 13.3284 16.625 13.6562 16.625C13.9841 16.625 14.25 16.3591 14.25 16.0312V14.25H16.0312C16.3591 14.25 16.625 13.9841 16.625 13.6562C16.625 13.3284 16.3591 13.0625 16.0312 13.0625H14.25V11.2812C14.25 10.9533 13.9841 10.6875 13.6562 10.6875ZM8.61788 9.5C7.68529 10.6292 7.125 12.0774 7.125 13.6562C7.125 14.2737 7.21068 14.8712 7.3708 15.4373L7.19648 15.4385C4.19505 15.4385 2.49098 14.4354 2.38071 12.4139L2.375 12.2011V11.2812C2.375 10.3554 3.08143 9.59447 3.9847 9.50815L4.15625 9.5H8.61788ZM7.125 2.375C8.76487 2.375 10.0942 3.70437 10.0942 5.34423C10.0942 6.98409 8.76487 8.31346 7.125 8.31346C5.48513 8.31346 4.15576 6.98409 4.15576 5.34423C4.15576 3.70437 5.48513 2.375 7.125 2.375ZM13.0625 3.5625C14.3742 3.5625 15.4375 4.62582 15.4375 5.9375C15.4375 6.43117 15.2869 6.88966 15.0291 7.26953C14.5864 7.17484 14.1272 7.125 13.6562 7.125C12.834 7.125 12.0474 7.27692 11.3227 7.55422C10.9286 7.13026 10.6875 6.56203 10.6875 5.9375C10.6875 4.62582 11.7508 3.5625 13.0625 3.5625Z" fill="white"/>
</svg>
