<svg width="24" height="24" viewBox="0 0 24 24" fill="none" xmlns="http://www.w3.org/2000/svg">
<path d="M12 14.4827C13.3712 14.4827 14.4827 13.3712 14.4827 12C14.4827 10.6288 13.3712 9.51721 12 9.51721C10.6288 9.51721 9.51721 10.6288 9.51721 12C9.51721 13.3712 10.6288 14.4827 12 14.4827Z" fill="white"/>
<path d="M4.96555 14.4827C6.33674 14.4827 7.44831 13.3712 7.44831 12C7.44831 10.6288 6.33674 9.51721 4.96555 9.51721C3.59436 9.51721 2.48279 10.6288 2.48279 12C2.48279 13.3712 3.59436 14.4827 4.96555 14.4827Z" fill="white"/>
<path d="M19.0345 14.4827C20.4056 14.4827 21.5172 13.3712 21.5172 12C21.5172 10.6288 20.4056 9.51721 19.0345 9.51721C17.6633 9.51721 16.5517 10.6288 16.5517 12C16.5517 13.3712 17.6633 14.4827 19.0345 14.4827Z" fill="white"/>
<path d="M12 7.44831C13.3712 7.44831 14.4827 6.33674 14.4827 4.96555C14.4827 3.59436 13.3712 2.48279 12 2.48279C10.6288 2.48279 9.51721 3.59436 9.51721 4.96555C9.51721 6.33674 10.6288 7.44831 12 7.44831Z" fill="white"/>
<path d="M12 21.5172C13.3712 21.5172 14.4827 20.4056 14.4827 19.0345C14.4827 17.6633 13.3712 16.5517 12 16.5517C10.6288 16.5517 9.51721 17.6633 9.51721 19.0345C9.51721 20.4056 10.6288 21.5172 12 21.5172Z" fill="white"/>
<path d="M6.7211 6.72106C7.69066 5.75147 7.69064 4.17947 6.72104 3.20991C5.75145 2.24035 4.17945 2.24038 3.20989 3.20997C2.24033 4.17956 2.24036 5.75156 3.20995 6.72112C4.17955 7.69068 5.75154 7.69065 6.7211 6.72106Z" fill="white"/>
<path d="M20.7901 20.79C21.7596 19.8204 21.7596 18.2484 20.79 17.2789C19.8204 16.3093 18.2484 16.3093 17.2789 17.2789C16.3093 18.2485 16.3093 19.8205 17.2789 20.7901C18.2485 21.7597 19.8205 21.7596 20.7901 20.79Z" fill="white"/>
<path d="M20.7901 6.72106C21.7596 5.75147 21.7596 4.17947 20.79 3.20991C19.8204 2.24035 18.2484 2.24038 17.2789 3.20997C16.3093 4.17956 16.3093 5.75156 17.2789 6.72112C18.2485 7.69068 19.8205 7.69065 20.7901 6.72106Z" fill="white"/>
<path d="M6.7211 20.79C7.69066 19.8204 7.69064 18.2484 6.72104 17.2789C5.75145 16.3093 4.17945 16.3093 3.20989 17.2789C2.24033 18.2485 2.24036 19.8205 3.20995 20.7901C4.17955 21.7597 5.75154 21.7596 6.7211 20.79Z" fill="white"/>
</svg>
