<svg width="17" height="17" viewBox="0 0 17 17" fill="none" xmlns="http://www.w3.org/2000/svg">
<path d="M15.5286 1.47119C15.5286 1.47119 10.2651 1.45888 6.16161 5.56233C5.97617 5.74988 5.80748 5.95329 5.65747 6.17023C4.92999 6.11219 3.81502 6.1333 3.2464 6.70309C1.91571 8.03378 1.47195 10.252 1.47195 10.252L4.57533 9.80881V10.6658L6.33395 12.4245H7.19099L6.74723 15.5284C6.74723 15.5284 8.96544 15.0847 10.2961 13.754C10.8653 13.1848 10.8864 12.0704 10.829 11.3429C11.0461 11.1931 11.2495 11.0244 11.4369 10.8388C15.5403 6.73533 15.5286 1.47119 15.5286 1.47119V1.47119ZM9.67826 6.14912C9.67473 5.99299 9.70243 5.83773 9.75973 5.69245C9.81703 5.54718 9.90278 5.41481 10.0119 5.30313C10.1211 5.19144 10.2515 5.10269 10.3954 5.04209C10.5393 4.98148 10.6939 4.95024 10.8501 4.9502C11.0063 4.95016 11.1609 4.98133 11.3048 5.04186C11.4488 5.10239 11.5792 5.19108 11.6884 5.30271C11.7976 5.41434 11.8834 5.54666 11.9408 5.69191C11.9982 5.83716 12.026 5.99241 12.0225 6.14854C12.0157 6.45487 11.8893 6.74637 11.6703 6.96065C11.4513 7.17493 11.1571 7.29495 10.8507 7.29503C10.5443 7.29511 10.25 7.17523 10.0309 6.96106C9.81176 6.74689 9.68519 6.45545 9.67826 6.14912Z" fill="white"/>
<path d="M5.01675 13.0172C4.47803 13.5559 3.7951 13.2024 3.7951 13.2024C3.7951 13.2024 3.46213 12.499 3.98034 11.9808C4.02489 11.9362 4.07941 11.911 4.13158 11.8805L3.77106 11.52C3.58289 11.5845 3.40527 11.6865 3.2552 11.8366C2.72879 12.363 2.75927 14.2383 2.75927 14.2383C2.75927 14.2383 4.63513 14.2682 5.16096 13.7423C5.31103 13.5923 5.41303 13.4146 5.47751 13.2265L5.11758 12.8665C5.08651 12.9181 5.0613 12.9726 5.01675 13.0172V13.0172Z" fill="white"/>
</svg>
