<svg width="19" height="19" viewBox="0 0 19 19" fill="none" xmlns="http://www.w3.org/2000/svg">
<path d="M16.625 4.75H13.4583C13.2484 4.75 13.047 4.83341 12.8985 4.98188C12.7501 5.13034 12.6667 5.3317 12.6667 5.54167C12.6667 5.75163 12.7501 5.95299 12.8985 6.10146C13.047 6.24993 13.2484 6.33333 13.4583 6.33333H16.625C16.835 6.33333 17.0363 6.24993 17.1848 6.10146C17.3333 5.95299 17.4167 5.75163 17.4167 5.54167C17.4167 5.3317 17.3333 5.13034 17.1848 4.98188C17.0363 4.83341 16.835 4.75 16.625 4.75ZM7.91667 8.70833C8.54297 8.70833 9.15522 8.52261 9.67597 8.17465C10.1967 7.8267 10.6026 7.33213 10.8423 6.7535C11.082 6.17487 11.1447 5.53816 11.0225 4.92388C10.9003 4.30961 10.5987 3.74536 10.1558 3.3025C9.71297 2.85963 9.14873 2.55803 8.53445 2.43585C7.92018 2.31366 7.28347 2.37637 6.70484 2.61605C6.1262 2.85573 5.63164 3.26161 5.28368 3.78236C4.93572 4.30312 4.75 4.91536 4.75 5.54167C4.75 6.38152 5.08363 7.18697 5.6775 7.78084C6.27136 8.3747 7.07681 8.70833 7.91667 8.70833ZM12.6667 16.625C12.8766 16.625 13.078 16.5416 13.2265 16.3931C13.3749 16.2447 13.4583 16.0433 13.4583 15.8333C13.4583 14.3636 12.8745 12.954 11.8352 11.9148C10.796 10.8755 9.38641 10.2917 7.91667 10.2917C6.44693 10.2917 5.03738 10.8755 3.99812 11.9148C2.95885 12.954 2.375 14.3636 2.375 15.8333C2.375 16.0433 2.45841 16.2447 2.60687 16.3931C2.75534 16.5416 2.9567 16.625 3.16667 16.625" fill="white"/>
</svg>
