<svg width="15" height="15" viewBox="0 0 15 15" fill="none" xmlns="http://www.w3.org/2000/svg">
<path d="M9.19456 11.3654H5.81172C5.68831 11.3654 5.59133 11.4624 5.59133 11.5858V12.7384C5.59133 13.1131 5.89547 13.4194 6.27231 13.4194H8.73397C9.1086 13.4194 9.41495 13.113 9.41495 12.7384V11.5858C9.41495 11.4624 9.31797 11.3654 9.19456 11.3654ZM12.9255 5.65262H12.0349C11.9132 5.65262 11.8145 5.7513 11.8145 5.87301C11.8145 5.99471 11.9132 6.09339 12.0349 6.09339H12.9255C13.0472 6.09339 13.1459 5.99471 13.1459 5.87301C13.1459 5.7513 13.0472 5.65262 12.9255 5.65262ZM11.5375 3.79639L12.3088 3.35112C12.4142 3.29021 12.4503 3.15548 12.3895 3.05003C12.3286 2.94469 12.1936 2.9083 12.0884 2.96932L11.3172 3.4146C11.2117 3.47551 11.1756 3.61023 11.2364 3.71569C11.2979 3.82182 11.4331 3.85673 11.5375 3.79639ZM9.65731 2.13644C9.76347 2.19757 9.89785 2.16041 9.9584 2.05573L10.4037 1.28451C10.4645 1.17905 10.4284 1.04432 10.323 0.983414C10.2172 0.922392 10.0827 0.958664 10.0219 1.06412L9.5766 1.83535C9.51581 1.9408 9.55185 2.07553 9.65731 2.13644ZM7.49999 1.55837C7.62169 1.55837 7.72038 1.45969 7.72038 1.33798V0.447437C7.72038 0.325733 7.62169 0.227051 7.49999 0.227051C7.37829 0.227051 7.2796 0.325733 7.2796 0.447437V1.33801C7.2796 1.45969 7.37829 1.55837 7.49999 1.55837ZM5.04158 2.05573C5.10297 2.16187 5.23819 2.19678 5.34267 2.13644C5.44813 2.07553 5.48417 1.9408 5.42338 1.83535L4.9781 1.06412C4.91699 0.958664 4.78238 0.922392 4.67701 0.983414C4.57156 1.04432 4.53551 1.17905 4.59631 1.28451L5.04158 2.05573ZM2.69122 3.35112L3.46244 3.79639C3.5686 3.85753 3.70299 3.82037 3.76354 3.71569C3.82433 3.61023 3.78829 3.47551 3.68283 3.4146L2.9116 2.96932C2.8056 2.9083 2.67142 2.94469 2.61051 3.05003C2.54972 3.15548 2.58576 3.29021 2.69122 3.35112ZM3.18547 5.87301C3.18547 5.7513 3.08679 5.65262 2.96508 5.65262H2.07451C1.95281 5.65262 1.85413 5.7513 1.85413 5.87301C1.85413 5.99471 1.95281 6.09339 2.07451 6.09339H2.96508C3.08679 6.09339 3.18547 5.99471 3.18547 5.87301ZM3.46244 7.94951L2.69122 8.39478C2.58576 8.45569 2.54972 8.59041 2.61051 8.69587C2.6719 8.80201 2.80713 8.83691 2.9116 8.77657L3.68283 8.3313C3.78829 8.27039 3.82433 8.13566 3.76354 8.03021C3.70251 7.92466 3.56758 7.88839 3.46244 7.94951ZM5.17856 9.89453C5.07354 9.83385 4.9386 9.86957 4.87735 9.97469L4.50783 10.6122C4.44681 10.7174 4.48265 10.8523 4.58799 10.9134C4.69399 10.9747 4.82851 10.9378 4.88919 10.8332L5.25872 10.1957C5.31974 10.0905 5.28392 9.95553 5.17856 9.89453ZM10.1225 9.97469C10.0615 9.86944 9.92642 9.83371 9.82129 9.89453C9.71594 9.95564 9.6801 10.0905 9.74113 10.1957L10.1108 10.8332C10.1715 10.9379 10.3061 10.9746 10.412 10.9134C10.5173 10.8523 10.5532 10.7174 10.4921 10.6122L10.1225 9.97469ZM12.3088 8.3948L11.5375 7.94953C11.4317 7.88841 11.2972 7.92466 11.2364 8.03023C11.1756 8.13569 11.2117 8.27041 11.3172 8.33132L12.0884 8.7766C12.1945 8.83773 12.3289 8.80057 12.3895 8.69589C12.4503 8.59044 12.4142 8.45571 12.3088 8.3948ZM8.15974 6.81855C8.13908 6.83932 8.11099 6.85105 8.08172 6.85105H8.0816C8.05233 6.85105 8.02435 6.83944 8.0037 6.81878L7.61017 6.42526V10.9247H9.11301C9.17472 10.085 9.56258 9.27844 10.2171 8.63051C10.962 7.89885 11.3697 6.92035 11.3697 5.87355C11.3697 3.74028 9.63533 2.00366 7.50204 2.00366C5.36656 2.00366 3.62994 3.74026 3.62994 5.87355C3.62994 6.92037 4.03985 7.90105 4.78474 8.63491C5.43929 9.27623 5.82715 10.0828 5.88885 10.9247H7.38981V6.42616L6.99897 6.81869C6.97831 6.83935 6.95022 6.85107 6.92094 6.85107H6.92083C6.89156 6.85107 6.86358 6.83946 6.84292 6.8188L6.2614 6.23719C6.21835 6.19414 6.21835 6.12441 6.2614 6.08137C6.30444 6.03832 6.37417 6.03832 6.41722 6.08137L6.92072 6.58487L7.42185 6.08148L7.42204 6.08137C7.4321 6.0713 7.44413 6.06326 7.45745 6.05766C7.47076 6.0521 7.48515 6.0491 7.49988 6.0491H7.49999C7.51472 6.0491 7.5291 6.0521 7.5424 6.05764C7.55583 6.06323 7.56792 6.07137 7.57804 6.08151L8.0814 6.58487L8.58254 6.0816C8.62547 6.03855 8.69542 6.03835 8.73835 6.08116C8.78151 6.1241 8.78172 6.19394 8.73879 6.23698L8.15974 6.81855ZM7.50424 14.7725C8.05299 14.7725 8.50917 14.3802 8.61274 13.8601H6.39572C6.4971 14.3802 6.95549 14.7725 7.50424 14.7725Z" fill="white"/>
</svg>
