<svg width="19" height="19" viewBox="0 0 19 19" fill="none" xmlns="http://www.w3.org/2000/svg">
<path d="M15.3262 4.00781H12.9883V4.63867H14.074C14.2379 4.63867 14.3613 4.78711 14.3613 4.95095V15.9019C14.3613 16.0659 14.2379 16.2168 14.074 16.2168H4.92605C4.7621 16.2168 4.63867 16.0659 4.63867 15.9019V4.95095C4.63867 4.78711 4.7621 4.63867 4.92605 4.63867H5.97461V4.00781H3.67383V17.3301H15.3262V4.00781Z" fill="white"/>
<path d="M12.3945 3.90168C12.3945 3.41213 12.0338 3.04297 11.5555 3.04297H10.5391V2.50043C10.5391 2.02695 10.1726 1.66992 9.68666 1.66992H9.33115C8.83088 1.66992 8.42383 2.0425 8.42383 2.50043V3.04297H7.4627C6.96959 3.04297 6.56836 3.4282 6.56836 3.90168V5.23242H12.3945V3.90168ZM5.97461 5.23242H5.23242V15.623H13.7676V5.23242H12.9883V5.82617H5.97461V5.23242ZM8.04323 8.08984H10.2146C10.2933 8.08984 10.3688 8.12112 10.4245 8.1768C10.4802 8.23247 10.5115 8.30798 10.5115 8.38672C10.5115 8.46545 10.4802 8.54097 10.4245 8.59664C10.3688 8.65232 10.2933 8.68359 10.2146 8.68359H8.04323C7.9645 8.68359 7.88899 8.65232 7.83331 8.59664C7.77764 8.54097 7.74636 8.46545 7.74636 8.38672C7.74636 8.30798 7.77764 8.23247 7.83331 8.1768C7.88899 8.12112 7.9645 8.08984 8.04323 8.08984ZM8.04323 9.57422H12.4411C12.5199 9.57422 12.5954 9.6055 12.6511 9.66117C12.7067 9.71685 12.738 9.79236 12.738 9.87109C12.738 9.94983 12.7067 10.0253 12.6511 10.081C12.5954 10.1367 12.5199 10.168 12.4411 10.168H8.04323C7.9645 10.168 7.88899 10.1367 7.83331 10.081C7.77764 10.0253 7.74636 9.94983 7.74636 9.87109C7.74636 9.79236 7.77764 9.71685 7.83331 9.66117C7.88899 9.6055 7.9645 9.57422 8.04323 9.57422ZM8.04323 11.0586H12.4411C12.5199 11.0586 12.5954 11.0899 12.6511 11.1455C12.7067 11.2012 12.738 11.2767 12.738 11.3555C12.738 11.4342 12.7067 11.5097 12.6511 11.5654C12.5954 11.6211 12.5199 11.6523 12.4411 11.6523H8.04323C7.9645 11.6523 7.88899 11.6211 7.83331 11.5654C7.77764 11.5097 7.74636 11.4342 7.74636 11.3555C7.74636 11.2767 7.77764 11.2012 7.83331 11.1455C7.88899 11.0899 7.9645 11.0586 8.04323 11.0586ZM8.04323 12.543H12.4411C12.5199 12.543 12.5954 12.5742 12.6511 12.6299C12.7067 12.6856 12.738 12.7611 12.738 12.8398C12.738 12.9186 12.7067 12.9941 12.6511 13.0498C12.5954 13.1054 12.5199 13.1367 12.4411 13.1367H8.04323C7.9645 13.1367 7.88899 13.1054 7.83331 13.0498C7.77764 12.9941 7.74636 12.9186 7.74636 12.8398C7.74636 12.7611 7.77764 12.6856 7.83331 12.6299C7.88899 12.5742 7.9645 12.543 8.04323 12.543ZM6.55886 8.08984H6.97656C7.0553 8.08984 7.13081 8.12112 7.18649 8.1768C7.24216 8.23247 7.27344 8.30798 7.27344 8.38672C7.27344 8.46545 7.24216 8.54097 7.18649 8.59664C7.13081 8.65232 7.0553 8.68359 6.97656 8.68359H6.55886C6.48012 8.68359 6.40461 8.65232 6.34894 8.59664C6.29326 8.54097 6.26198 8.46545 6.26198 8.38672C6.26198 8.30798 6.29326 8.23247 6.34894 8.1768C6.40461 8.12112 6.48012 8.08984 6.55886 8.08984ZM6.55886 9.57422H6.97656C7.0553 9.57422 7.13081 9.6055 7.18649 9.66117C7.24216 9.71685 7.27344 9.79236 7.27344 9.87109C7.27344 9.94983 7.24216 10.0253 7.18649 10.081C7.13081 10.1367 7.0553 10.168 6.97656 10.168H6.55886C6.48012 10.168 6.40461 10.1367 6.34894 10.081C6.29326 10.0253 6.26198 9.94983 6.26198 9.87109C6.26198 9.79236 6.29326 9.71685 6.34894 9.66117C6.40461 9.6055 6.48012 9.57422 6.55886 9.57422ZM6.55886 11.0586H6.97656C7.0553 11.0586 7.13081 11.0899 7.18649 11.1455C7.24216 11.2012 7.27344 11.2767 7.27344 11.3555C7.27344 11.4342 7.24216 11.5097 7.18649 11.5654C7.13081 11.6211 7.0553 11.6523 6.97656 11.6523H6.55886C6.48012 11.6523 6.40461 11.6211 6.34894 11.5654C6.29326 11.5097 6.26198 11.4342 6.26198 11.3555C6.26198 11.2767 6.29326 11.2012 6.34894 11.1455C6.40461 11.0899 6.48012 11.0586 6.55886 11.0586ZM6.55886 12.543H6.97656C7.0553 12.543 7.13081 12.5742 7.18649 12.6299C7.24216 12.6856 7.27344 12.7611 7.27344 12.8398C7.27344 12.9186 7.24216 12.9941 7.18649 13.0498C7.13081 13.1054 7.0553 13.1367 6.97656 13.1367H6.55886C6.48012 13.1367 6.40461 13.1054 6.34894 13.0498C6.29326 12.9941 6.26198 12.9186 6.26198 12.8398C6.26198 12.7611 6.29326 12.6856 6.34894 12.6299C6.40461 12.5742 6.48012 12.543 6.55886 12.543Z" fill="white"/>
</svg>
