<svg width="32" height="32" viewBox="0 0 32 32" fill="none" xmlns="http://www.w3.org/2000/svg">
<path d="M4.04999 27.71C4.04999 29.8 5.75 31.5 7.84003 31.5H24.16C26.25 31.5 27.95 29.8 27.95 27.71V16.29C27.95 14.59 26.82 13.17 25.29 12.69V9.78998C25.29 4.66998 21.12 0.5 16 0.5C10.88 0.5 6.71002 4.66998 6.71002 9.78998V12.69C5.17999 13.17 4.04999 14.59 4.04999 16.29V27.71ZM17.5 24.72V25.08C17.5 25.91 16.83 26.58 16 26.58C15.17 26.58 14.5 25.91 14.5 25.08V24.72C13.15 24.14 12.19 22.79 12.19 21.23C12.19 19.13 13.9 17.42 16 17.42C18.1 17.42 19.81 19.13 19.81 21.23C19.81 22.79 18.85 24.14 17.5 24.72ZM9.71002 9.78998C9.71002 6.32001 12.53 3.5 16 3.5C19.47 3.5 22.29 6.32001 22.29 9.78998V12.5H9.71002V9.78998Z" fill="white"/>
<path d="M16 20.42C15.56 20.42 15.19 20.78 15.19 21.23C15.19 21.67 15.56 22.03 16 22.03C16.44 22.03 16.81 21.67 16.81 21.23C16.81 20.78 16.44 20.42 16 20.42Z" fill="white"/>
</svg>
