<svg width="48" height="48" viewBox="0 0 48 48" fill="none" xmlns="http://www.w3.org/2000/svg">
<path d="M24 33.1034C27.1995 33.1034 29.7931 30.5098 29.7931 27.3103C29.7931 24.1109 27.1995 21.5172 24 21.5172C20.8006 21.5172 18.2069 24.1109 18.2069 27.3103C18.2069 30.5098 20.8006 33.1034 24 33.1034Z" fill="white"/>
<path d="M41.3793 13.2414H35.952C35.6044 13.2415 35.2657 13.1322 34.9838 12.929C34.7018 12.7258 34.491 12.439 34.3812 12.1093L33.8582 10.5385C33.6382 9.87937 33.2165 9.30615 32.6527 8.90006C32.0888 8.49397 31.4115 8.2756 30.7166 8.27588H17.2816C16.5868 8.27606 15.9097 8.49483 15.3462 8.90122C14.7827 9.3076 14.3613 9.88098 14.1418 10.5402L13.6187 12.1093C13.5089 12.439 13.2981 12.7258 13.0162 12.929C12.7342 13.1322 12.3955 13.2415 12.048 13.2414H6.62065C5.74269 13.2414 4.90069 13.5902 4.27988 14.211C3.65907 14.8318 3.3103 15.6738 3.3103 16.5517V36.4138C3.3103 37.2918 3.65907 38.1338 4.27988 38.7546C4.90069 39.3754 5.74269 39.7242 6.62065 39.7242H41.3793C42.2572 39.7242 43.0992 39.3754 43.72 38.7546C44.3408 38.1338 44.6896 37.2918 44.6896 36.4138V16.5517C44.6896 15.6738 44.3408 14.8318 43.72 14.211C43.0992 13.5902 42.2572 13.2414 41.3793 13.2414V13.2414ZM24 36.4138C18.9815 36.4138 14.8965 32.3288 14.8965 27.3104C14.8965 22.2919 18.9815 18.2069 24 18.2069C29.0184 18.2069 33.1034 22.2919 33.1034 27.3104C33.1034 32.3288 29.0184 36.4138 24 36.4138ZM33.931 19.8621C33.492 19.8621 33.071 19.6877 32.7606 19.3773C32.4502 19.0669 32.2758 18.6459 32.2758 18.2069C32.2758 17.7679 32.4502 17.3469 32.7606 17.0365C33.071 16.7261 33.492 16.5517 33.931 16.5517C34.37 16.5517 34.791 16.7261 35.1014 17.0365C35.4118 17.3469 35.5862 17.7679 35.5862 18.2069C35.5862 18.6459 35.4118 19.0669 35.1014 19.3773C34.791 19.6877 34.37 19.8621 33.931 19.8621Z" fill="white"/>
<path d="M9.10351 11.5862H5.79316C5.57367 11.5862 5.36317 11.499 5.20797 11.3438C5.05277 11.1886 4.96558 10.9781 4.96558 10.7586C4.96558 10.5391 5.05277 10.3286 5.20797 10.1734C5.36317 10.0182 5.57367 9.93103 5.79316 9.93103H9.10351C9.323 9.93103 9.5335 10.0182 9.6887 10.1734C9.8439 10.3286 9.93109 10.5391 9.93109 10.7586C9.93109 10.9781 9.8439 11.1886 9.6887 11.3438C9.5335 11.499 9.323 11.5862 9.10351 11.5862Z" fill="white"/>
</svg>
