<svg width="15" height="15" viewBox="0 0 15 15" fill="none" xmlns="http://www.w3.org/2000/svg">
<path d="M10.7109 7.22363C10.3517 7.74285 9.87185 8.16719 9.31261 8.46029C8.75337 8.75339 8.13139 8.9065 7.5 8.9065C6.86861 8.9065 6.24663 8.75339 5.68739 8.46029C5.12815 8.16719 4.64833 7.74285 4.28906 7.22363C3.68334 7.70571 3.19394 8.318 2.85718 9.01505C2.52042 9.71211 2.34494 10.4761 2.34375 11.2502V13.1252C2.34375 13.4982 2.49191 13.8558 2.75563 14.1196C3.01935 14.3833 3.37704 14.5314 3.75 14.5314H11.25C11.623 14.5314 11.9806 14.3833 12.2444 14.1196C12.5081 13.8558 12.6562 13.4982 12.6562 13.1252V11.2502C12.6551 10.4761 12.4796 9.71211 12.1428 9.01505C11.8061 8.318 11.3167 7.70571 10.7109 7.22363V7.22363Z" fill="white"/>
<path d="M4.52339 5.1938C4.58285 5.94244 4.92223 6.64117 5.47389 7.15075C6.02554 7.66032 6.74896 7.94331 7.49995 7.94331C8.25094 7.94331 8.97436 7.66032 9.52601 7.15075C10.0777 6.64117 10.4171 5.94244 10.4765 5.1938L10.5796 3.78755C10.6128 3.36292 10.5578 2.93602 10.4181 2.53366C10.2783 2.13131 10.0569 1.7622 9.76768 1.44952C9.47846 1.13684 9.12771 0.887349 8.73746 0.716719C8.3472 0.546089 7.92588 0.458008 7.49995 0.458008C7.07402 0.458008 6.6527 0.546089 6.26245 0.716719C5.87219 0.887349 5.52144 1.13684 5.23222 1.44952C4.94301 1.7622 4.72158 2.13131 4.58185 2.53366C4.44212 2.93602 4.38711 3.36292 4.42026 3.78755L4.52339 5.1938Z" fill="white"/>
</svg>
