<svg width="15" height="15" viewBox="0 0 15 15" fill="none" xmlns="http://www.w3.org/2000/svg">
<path d="M4.63281 7.49997C3.78906 7.52601 3.09896 7.85934 2.5625 8.49997H1.51562C1.08854 8.49997 0.729167 8.3945 0.4375 8.18356C0.145833 7.97262 0 7.66403 0 7.25778C0 5.41925 0.322917 4.49998 0.96875 4.49998C1 4.49998 1.11328 4.55467 1.30859 4.66404C1.50391 4.77342 1.75781 4.8841 2.07031 4.99607C2.38281 5.10805 2.69271 5.16404 3 5.16404C3.34896 5.16404 3.69531 5.10415 4.03906 4.98436C4.01302 5.17706 4 5.34894 4 5.49998C4 6.22393 4.21094 6.8906 4.63281 7.49997ZM13 12.4765C13 13.1015 12.8099 13.595 12.4297 13.957C12.0495 14.319 11.5443 14.4999 10.9141 14.4999H4.08594C3.45573 14.4999 2.95052 14.319 2.57031 13.957C2.1901 13.595 2 13.1015 2 12.4765C2 12.2005 2.00911 11.9309 2.02734 11.6679C2.04557 11.4049 2.08203 11.121 2.13672 10.8164C2.19141 10.5117 2.26042 10.2291 2.34375 9.96871C2.42708 9.70829 2.53906 9.45439 2.67969 9.20699C2.82031 8.9596 2.98177 8.74866 3.16406 8.57418C3.34635 8.39971 3.56901 8.26038 3.83203 8.15622C4.09505 8.05205 4.38542 7.99997 4.70313 7.99997C4.75521 7.99997 4.86719 8.05596 5.03906 8.16794C5.21094 8.27991 5.40104 8.40491 5.60937 8.54293C5.81771 8.68095 6.09635 8.80595 6.44531 8.91793C6.79427 9.02991 7.14583 9.0859 7.5 9.0859C7.85417 9.0859 8.20573 9.02991 8.55469 8.91793C8.90365 8.80595 9.18229 8.68095 9.39062 8.54293C9.59896 8.40491 9.78906 8.27991 9.96094 8.16794C10.1328 8.05596 10.2448 7.99997 10.2969 7.99997C10.6146 7.99997 10.9049 8.05205 11.168 8.15622C11.431 8.26038 11.6536 8.39971 11.8359 8.57418C12.0182 8.74866 12.1797 8.9596 12.3203 9.20699C12.4609 9.45439 12.5729 9.70829 12.6562 9.96871C12.7396 10.2291 12.8086 10.5117 12.8633 10.8164C12.918 11.121 12.9544 11.4049 12.9727 11.6679C12.9909 11.9309 13 12.2005 13 12.4765V12.4765ZM5 2.49999C5 3.05207 4.80469 3.52342 4.41406 3.91405C4.02344 4.30467 3.55208 4.49998 3 4.49998C2.44792 4.49998 1.97656 4.30467 1.58594 3.91405C1.19531 3.52342 1 3.05207 1 2.49999C1 1.94791 1.19531 1.47656 1.58594 1.08593C1.97656 0.695312 2.44792 0.5 3 0.5C3.55208 0.5 4.02344 0.695312 4.41406 1.08593C4.80469 1.47656 5 1.94791 5 2.49999ZM10.5 5.49998C10.5 6.3281 10.207 7.03513 9.62109 7.62106C9.03516 8.207 8.32812 8.49997 7.5 8.49997C6.67187 8.49997 5.96484 8.207 5.37891 7.62106C4.79297 7.03513 4.5 6.3281 4.5 5.49998C4.5 4.67186 4.79297 3.96483 5.37891 3.37889C5.96484 2.79296 6.67187 2.49999 7.5 2.49999C8.32812 2.49999 9.03516 2.79296 9.62109 3.37889C10.207 3.96483 10.5 4.67186 10.5 5.49998V5.49998ZM15 7.25778C15 7.66403 14.8542 7.97262 14.5625 8.18356C14.2708 8.3945 13.9115 8.49997 13.4844 8.49997H12.4375C11.901 7.85934 11.2109 7.52601 10.3672 7.49997C10.7891 6.8906 11 6.22393 11 5.49998C11 5.34894 10.987 5.17706 10.9609 4.98436C11.3047 5.10415 11.651 5.16404 12 5.16404C12.3073 5.16404 12.6172 5.10805 12.9297 4.99607C13.2422 4.8841 13.4961 4.77342 13.6914 4.66404C13.8867 4.55467 14 4.49998 14.0313 4.49998C14.6771 4.49998 15 5.41925 15 7.25778V7.25778ZM14 2.49999C14 3.05207 13.8047 3.52342 13.4141 3.91405C13.0234 4.30467 12.5521 4.49998 12 4.49998C11.4479 4.49998 10.9766 4.30467 10.5859 3.91405C10.1953 3.52342 10 3.05207 10 2.49999C10 1.94791 10.1953 1.47656 10.5859 1.08593C10.9766 0.695312 11.4479 0.5 12 0.5C12.5521 0.5 13.0234 0.695312 13.4141 1.08593C13.8047 1.47656 14 1.94791 14 2.49999V2.49999Z" fill="white"/>
</svg>
