<svg width="19" height="19" viewBox="0 0 19 19" fill="none" xmlns="http://www.w3.org/2000/svg">
<path d="M15.0971 3.90291C13.7981 2.59548 12.0837 1.78221 10.2494 1.60331C8.41508 1.42442 6.57583 1.89111 5.04873 2.92293C3.52164 3.95476 2.40239 5.48704 1.88395 7.25563C1.36551 9.02422 1.48037 10.9183 2.20872 12.6112C2.28463 12.7686 2.30954 12.9457 2.27997 13.1179L1.5833 16.4667C1.55646 16.5951 1.56195 16.7281 1.59925 16.8539C1.63656 16.9796 1.70453 17.0941 1.79705 17.1871C1.8729 17.2624 1.96321 17.3215 2.06253 17.361C2.16185 17.4004 2.26813 17.4194 2.37497 17.4167H2.5333L5.92164 16.7358C6.09385 16.7151 6.26848 16.7397 6.4283 16.8071C8.12128 17.5354 10.0153 17.6503 11.7839 17.1319C13.5525 16.6134 15.0848 15.4942 16.1166 13.9671C17.1484 12.44 17.6151 10.6007 17.4362 8.76642C17.2573 6.93212 16.4441 5.2177 15.1366 3.91875L15.0971 3.90291ZM6.3333 10.2917C6.17673 10.2917 6.02367 10.2452 5.89348 10.1582C5.76329 10.0713 5.66182 9.94761 5.6019 9.80296C5.54198 9.6583 5.5263 9.49912 5.55685 9.34555C5.5874 9.19198 5.6628 9.05092 5.77351 8.9402C5.88423 8.82949 6.02529 8.75409 6.17886 8.72354C6.33243 8.693 6.4916 8.70867 6.63626 8.76859C6.78092 8.82851 6.90456 8.92998 6.99155 9.06017C7.07854 9.19036 7.12497 9.34342 7.12497 9.5C7.12497 9.70996 7.04156 9.91132 6.8931 10.0598C6.74463 10.2083 6.54327 10.2917 6.3333 10.2917V10.2917ZM9.49997 10.2917C9.34339 10.2917 9.19033 10.2452 9.06014 10.1582C8.92996 10.0713 8.82849 9.94761 8.76857 9.80296C8.70865 9.6583 8.69297 9.49912 8.72352 9.34555C8.75406 9.19198 8.82946 9.05092 8.94018 8.9402C9.0509 8.82949 9.19196 8.75409 9.34552 8.72354C9.49909 8.693 9.65827 8.70867 9.80293 8.76859C9.94759 8.82851 10.0712 8.92998 10.1582 9.06017C10.2452 9.19036 10.2916 9.34342 10.2916 9.5C10.2916 9.70996 10.2082 9.91132 10.0598 10.0598C9.9113 10.2083 9.70993 10.2917 9.49997 10.2917ZM12.6666 10.2917C12.5101 10.2917 12.357 10.2452 12.2268 10.1582C12.0966 10.0713 11.9952 9.94761 11.9352 9.80296C11.8753 9.6583 11.8596 9.49912 11.8902 9.34555C11.9207 9.19198 11.9961 9.05092 12.1068 8.9402C12.2176 8.82949 12.3586 8.75409 12.5122 8.72354C12.6658 8.693 12.8249 8.70867 12.9696 8.76859C13.1143 8.82851 13.2379 8.92998 13.3249 9.06017C13.4119 9.19036 13.4583 9.34342 13.4583 9.5C13.4583 9.70996 13.3749 9.91132 13.2264 10.0598C13.078 10.2083 12.8766 10.2917 12.6666 10.2917Z" fill="white"/>
</svg>
