<svg width="24" height="24" viewBox="0 0 24 24" fill="none" xmlns="http://www.w3.org/2000/svg">
<path d="M4.69086 4.11359L5.86063 2.94377L19.3086 16.3912L18.1388 17.5611L4.69086 4.11359Z" fill="white"/>
<path d="M8.50012 10.2629V11.1724C8.50012 11.9406 8.80529 12.6774 9.3485 13.2206C9.89171 13.7638 10.6285 14.069 11.3967 14.069C11.6714 14.069 11.9321 14.0185 12.1837 13.9473L8.50012 10.2629V10.2629ZM14.2932 9.03476V4.55173C14.4542 4.15607 14.5257 3.72967 14.5025 3.30314C14.4792 2.8766 14.3619 2.46049 14.1589 2.08466C13.9558 1.70883 13.6721 1.38258 13.3282 1.12932C12.9842 0.876066 12.5884 0.702077 12.1692 0.619834C11.75 0.537592 11.3178 0.549134 10.9037 0.653634C10.4895 0.758134 10.1035 0.953002 9.77355 1.22426C9.44356 1.49552 9.17769 1.83644 8.99502 2.22258C8.81234 2.60871 8.71738 3.03049 8.71695 3.45766L14.2932 9.03476Z" fill="white"/>
<path d="M12.2243 17.3173C13.0927 17.1991 13.926 16.8975 14.669 16.4326L13.4607 15.2235C12.8223 15.552 12.1147 15.7237 11.3967 15.7242C10.19 15.7226 9.03311 15.2426 8.17983 14.3893C7.32655 13.536 6.8465 12.3792 6.84496 11.1724V8.60691L6.5131 8.27588H5.18896V11.1724C5.18896 14.3139 7.53683 16.9109 10.5683 17.3173V20.6897H7.67172V22.3448H15.12V20.6897H12.2234V17.3173H12.2243ZM17.5068 12.2491C17.568 11.8991 17.6036 11.5399 17.6036 11.1724V8.27588H15.9484V10.6899L17.5068 12.2491Z" fill="white"/>
</svg>
