<svg width="24" height="24" viewBox="0 0 24 24" fill="none" xmlns="http://www.w3.org/2000/svg">
<path d="M12 14.0689C11.2318 14.0689 10.495 13.7638 9.95184 13.2206C9.40863 12.6774 9.10345 11.9406 9.10345 11.1724V4.5517C9.10345 4.17132 9.17838 3.79467 9.32394 3.44324C9.46951 3.09181 9.68287 2.7725 9.95184 2.50353C10.2208 2.23456 10.5401 2.0212 10.8915 1.87564C11.243 1.73007 11.6196 1.65515 12 1.65515C12.3804 1.65515 12.757 1.73007 13.1085 1.87564C13.4599 2.0212 13.7792 2.23456 14.0482 2.50353C14.3171 2.7725 14.5305 3.09181 14.6761 3.44324C14.8216 3.79467 14.8966 4.17132 14.8966 4.5517V11.1724C14.8966 11.9406 14.5914 12.6774 14.0482 13.2206C13.505 13.7638 12.7682 14.0689 12 14.0689Z" fill="white"/>
<path d="M16.5517 8.27588V11.1724C16.5517 13.6817 14.5092 15.7242 12 15.7242C9.49075 15.7242 7.44826 13.6817 7.44826 11.1724V8.27588H5.79309V11.1724C5.79309 14.3139 8.14095 16.9109 11.1724 17.3173V20.6897H8.27585V22.3448H15.7241V20.6897H12.8276V17.3173C15.859 16.9109 18.2069 14.3139 18.2069 11.1724V8.27588H16.5517Z" fill="white"/>
</svg>
