<svg width="24" height="24" viewBox="0 0 24 24" fill="none" xmlns="http://www.w3.org/2000/svg">
<path d="M7.65516 8.27586H10.9655L15.8276 4.3862C15.9493 4.28874 16.0961 4.22765 16.251 4.20998C16.406 4.19231 16.5628 4.21878 16.7033 4.28633C16.8439 4.35388 16.9625 4.45977 17.0455 4.59179C17.1285 4.72382 17.1725 4.8766 17.1724 5.03255V18.9683C17.1725 19.1242 17.1285 19.277 17.0455 19.409C16.9625 19.5411 16.8439 19.6469 16.7033 19.7145C16.5628 19.782 16.406 19.8085 16.251 19.7908C16.0961 19.7732 15.9493 19.7121 15.8276 19.6146L10.9655 15.7241H7.65516C7.43567 15.7241 7.22517 15.6369 7.06997 15.4817C6.91477 15.3265 6.82758 15.116 6.82758 14.8965V9.10344C6.82758 8.88396 6.91477 8.67346 7.06997 8.51825C7.22517 8.36305 7.43567 8.27586 7.65516 8.27586V8.27586Z" fill="white"/>
</svg>
