<svg width="14" height="14" viewBox="0 0 14 14" fill="none" xmlns="http://www.w3.org/2000/svg">
<path d="M7 12.8335C7.64167 12.8335 8.16667 12.3085 8.16667 11.6668H5.83334C5.83334 12.3085 6.3525 12.8335 7 12.8335ZM10.5 6.41683C10.5 4.626 9.54333 3.12683 7.875 2.73016V2.3335C7.875 1.84933 7.48417 1.4585 7 1.4585C6.51584 1.4585 6.125 1.84933 6.125 2.3335V2.73016C5.985 2.76516 5.85084 2.81766 5.7225 2.86433L10.5 7.64183V6.41683ZM3.15584 1.95433L2.33334 2.77683L3.9725 4.416C3.66917 4.99933 3.5 5.676 3.5 6.41683V9.3335L2.7475 10.086C2.38 10.4535 2.63667 11.0835 3.15584 11.0835H10.64L11.655 12.0985L12.4775 11.276L3.15584 1.95433Z" fill="white"/>
</svg>
