<svg width="14" height="14" viewBox="0 0 14 14" fill="none" xmlns="http://www.w3.org/2000/svg">
<path d="M7 12.8335C7.64167 12.8335 8.16667 12.3085 8.16667 11.6668H5.83333C5.83333 12.3085 6.3525 12.8335 7 12.8335ZM10.5 9.3335V6.41683C10.5 4.626 9.54333 3.12683 7.875 2.73016V2.3335C7.875 1.84933 7.48417 1.4585 7 1.4585C6.51583 1.4585 6.125 1.84933 6.125 2.3335V2.73016C4.45083 3.12683 3.5 4.62016 3.5 6.41683V9.3335L2.7475 10.086C2.38 10.4535 2.63667 11.0835 3.15583 11.0835H10.8383C11.3575 11.0835 11.62 10.4535 11.2525 10.086L10.5 9.3335Z" fill="white"/>
</svg>
