<svg width="16" height="16" viewBox="0 0 16 16" fill="none" xmlns="http://www.w3.org/2000/svg">
<path d="M7.99643 6.434C7.13153 6.434 6.43042 7.13514 6.43042 8.00004C6.43042 8.86491 7.13153 9.56605 7.99643 9.56605C8.86133 9.56605 9.56244 8.86491 9.56244 8.00004C9.56244 7.13514 8.86133 6.434 7.99643 6.434ZM11.3906 4.61088C11.0986 4.31669 10.6238 4.31425 10.3298 4.60575C10.0356 4.89726 10.0332 5.37211 10.3247 5.66654C10.9465 6.29447 11.2891 7.12309 11.2891 8.00004C11.2891 8.87699 10.9465 9.7056 10.3247 10.3335C10.0332 10.628 10.0356 11.1028 10.3298 11.3943C10.4761 11.5391 10.667 11.6114 10.8577 11.6114C11.0508 11.6114 11.2439 11.5371 11.3906 11.3892C12.2925 10.4786 12.7891 9.27494 12.7891 8.00004C12.7891 6.72514 12.2925 5.52152 11.3906 4.61088Z" fill="white"/>
<path d="M13.4805 2.51587C13.188 2.2229 12.7129 2.2229 12.4199 2.51587C12.127 2.8086 12.127 3.28345 12.4199 3.57642C13.6001 4.75684 14.25 6.32788 14.25 8C14.25 9.67212 13.6001 11.2432 12.4199 12.4236C12.127 12.7166 12.127 13.1914 12.4199 13.4841C12.5664 13.6306 12.7583 13.7039 12.9502 13.7039C13.1421 13.7039 13.3342 13.6306 13.4805 13.4841C14.9441 12.0205 15.75 10.0728 15.75 8C15.75 5.92724 14.9441 3.97949 13.4805 2.51587ZM5.67017 4.60571C5.37598 4.31445 4.90112 4.31689 4.60938 4.61084C3.70752 5.52148 3.21094 6.7251 3.21094 8C3.21094 9.2749 3.70752 10.4785 4.60938 11.3892C4.75611 11.5371 4.94923 11.6113 5.14234 11.6113C5.33302 11.6113 5.52393 11.5391 5.67017 11.3943C5.96436 11.1028 5.9668 10.6279 5.67529 10.3335C5.05346 9.70556 4.71094 8.87695 4.71094 8C4.71094 7.12305 5.05347 6.29443 5.67529 5.6665C5.96679 5.37207 5.96436 4.89721 5.67017 4.60571Z" fill="white"/>
<path d="M1.75 8C1.75 6.32788 2.3999 4.75684 3.58008 3.57642C3.87305 3.28345 3.87305 2.8086 3.58008 2.51587C3.28711 2.2229 2.81202 2.2229 2.51954 2.51587C1.05591 3.97949 0.25 5.92724 0.25 8C0.25 10.0728 1.05591 12.0205 2.51953 13.4841C2.66577 13.6306 2.85791 13.7039 3.0498 13.7039C3.2417 13.7039 3.4336 13.6306 3.58008 13.4841C3.87305 13.1914 3.87305 12.7165 3.58008 12.4236C2.3999 11.2432 1.75 9.67212 1.75 8Z" fill="white"/>
</svg>
