<svg width="32" height="32" viewBox="0 0 32 32" fill="none" xmlns="http://www.w3.org/2000/svg">
<path d="M16 16C14.8937 16 14 15.1063 14 14V4C14 2.89375 14.8937 2 16 2C17.1063 2 18 2.89375 18 4V14C18 15.1063 17.1063 16 16 16Z" fill="white"/>
<path d="M23.6875 4.3C23.375 4.1125 23.0125 4 22.625 4C21.5187 4 20.625 4.89375 20.625 6C20.625 6.3875 20.7375 6.75 20.925 7.05625C21.05 7.25625 21.2125 7.4375 21.4 7.58125C21.475 7.6375 21.55 7.6875 21.6313 7.7375C22.1375 8.0875 22.6188 8.48125 23.0688 8.93125C24.9625 10.8187 26 13.3312 26 16C26 18.6688 24.9625 21.1813 23.0688 23.0688C21.1813 24.9625 18.6688 26 16 26C13.3312 26 10.8187 24.9625 8.93125 23.0688C7.0375 21.1813 6 18.6688 6 16C6 13.3312 7.0375 10.8187 8.93125 8.93125C9.375 8.4875 9.85625 8.0875 10.3625 7.74375C10.45 7.69375 10.525 7.64375 10.6062 7.58125C10.7937 7.4375 10.95 7.2625 11.075 7.0625C11.2687 6.75625 11.375 6.39375 11.375 6.00625C11.375 4.9 10.4813 4.00625 9.375 4.00625C8.9875 4.00625 8.625 4.11875 8.31875 4.30625L8.3125 4.3C4.5125 6.8 2 11.1062 2 16C2 23.7312 8.26875 30 16 30C23.7312 30 30 23.7312 30 16C30 11.1062 27.4875 6.8 23.6875 4.3V4.3Z" fill="white"/>
</svg>
