<svg width="120" height="120" viewBox="0 0 120 120" fill="none" xmlns="http://www.w3.org/2000/svg">
<path d="M26.0001 5.1832e-05H94.0001C97.4163 -0.00677356 100.8 0.661078 103.958 1.96528C107.115 3.26949 109.984 5.18437 112.4 7.60005C114.816 10.0157 116.731 12.8847 118.035 16.0422C119.339 19.1998 120.007 22.5838 120 26.0001V94.0001C120.007 97.4163 119.339 100.8 118.035 103.958C116.731 107.115 114.816 109.984 112.4 112.4C109.984 114.816 107.115 116.731 103.958 118.035C100.8 119.339 97.4163 120.007 94.0001 120H26.0001C22.5838 120.007 19.1998 119.339 16.0422 118.035C12.8847 116.731 10.0157 114.816 7.60005 112.4C5.18437 109.984 3.26949 107.115 1.96528 103.958C0.661078 100.8 -0.00677356 97.4163 5.1832e-05 94.0001V26.0001C-0.0067762 22.5838 0.661073 19.1998 1.96528 16.0422C3.26948 12.8847 5.18437 10.0157 7.60005 7.60005C10.0157 5.18437 12.8847 3.26948 16.0422 1.96528C19.1998 0.661073 22.5838 -0.0067762 26.0001 5.1832e-05V5.1832e-05Z" fill="url(#paint0_linear_700_114)"/>
<path d="M21.3397 36.8246C20.3519 37.8124 20.3519 39.4091 21.3397 40.3969C22.3275 41.3846 23.9241 41.3846 24.9119 40.3969L48.1338 17.175C49.1216 16.1897 49.1216 14.5905 48.1338 13.6027C47.146 12.615 45.5494 12.615 44.5616 13.6027L21.3397 36.8246Z" fill="#414042"/>
<path d="M105.474 86.3684C105.474 96.4736 95.3685 96.4736 95.3685 96.4736H24.6316C24.6316 96.4736 14.5264 96.4736 14.5264 86.3684V40.8947C14.5264 40.8947 14.5264 30.7894 24.6316 30.7894H95.3685C105.474 30.7894 105.474 40.8947 105.474 40.8947V86.3684Z" fill="#99AAB5"/>
<path d="M53.8357 13.2567C52.8479 14.2445 51.2513 14.2445 50.2635 13.2567L48.4774 11.4706C47.4896 10.4828 47.4896 8.88619 48.4774 7.8984C49.4652 6.91061 51.0618 6.91061 52.0496 7.8984L53.8357 9.68451C54.8235 10.6723 54.8235 12.2689 53.8357 13.2567Z" fill="#414042"/>
<path d="M97.8947 52.263C97.8947 59.9379 91.6749 66.1577 84 66.1577C76.325 66.1577 70.1052 59.9379 70.1052 52.263C70.1052 44.588 76.325 38.3682 84 38.3682C91.6749 38.3682 97.8947 44.588 97.8947 52.263Z" fill="#292F33"/>
<path d="M92.8422 80.0524C92.8422 84.9383 88.8859 88.8945 84.0001 88.8945C79.1142 88.8945 75.158 84.9383 75.158 80.0524C75.158 75.1665 79.1142 71.2103 84.0001 71.2103C88.8859 71.2103 92.8422 75.1665 92.8422 80.0524Z" fill="#292F33"/>
<path d="M92.8422 52.2629C92.8422 57.1488 88.8859 61.105 84.0001 61.105C79.1142 61.105 75.158 57.1488 75.158 52.2629C75.158 47.377 79.1142 43.4208 84.0001 43.4208C88.8859 43.4208 92.8422 47.377 92.8422 52.2629Z" fill="#66757F"/>
<path d="M87.7896 80.0528C87.7896 82.1471 86.0945 83.8423 84.0002 83.8423C81.9059 83.8423 80.2107 82.1471 80.2107 80.0528C80.2107 77.9585 81.9059 76.2633 84.0002 76.2633C86.0945 76.2633 87.7896 77.9585 87.7896 80.0528Z" fill="#66757F"/>
<path d="M44.8421 69.9473C44.8421 72.0391 43.147 73.7368 41.0527 73.7368C38.9583 73.7368 37.2632 72.0391 37.2632 69.9473C37.2632 67.8556 38.9583 66.1579 41.0527 66.1579C43.147 66.1579 44.8421 67.8556 44.8421 69.9473Z" fill="#292F33"/>
<path d="M32.2105 69.9473C32.2105 72.0391 30.5154 73.7368 28.4211 73.7368C26.3267 73.7368 24.6316 72.0391 24.6316 69.9473C24.6316 67.8556 26.3267 66.1579 28.4211 66.1579C30.5154 66.1579 32.2105 67.8556 32.2105 69.9473Z" fill="#292F33"/>
<path d="M44.8421 57.3155C44.8421 59.4073 43.147 61.105 41.0527 61.105C38.9583 61.105 37.2632 59.4073 37.2632 57.3155C37.2632 55.2237 38.9583 53.526 41.0527 53.526C43.147 53.526 44.8421 55.2237 44.8421 57.3155Z" fill="#292F33"/>
<path d="M57.4737 57.3155C57.4737 59.4073 55.7786 61.105 53.6842 61.105C51.5899 61.105 49.8948 59.4073 49.8948 57.3155C49.8948 55.2237 51.5899 53.526 53.6842 53.526C55.7786 53.526 57.4737 55.2237 57.4737 57.3155Z" fill="#292F33"/>
<path d="M57.4737 69.9473C57.4737 72.0391 55.7786 73.7368 53.6842 73.7368C51.5899 73.7368 49.8948 72.0391 49.8948 69.9473C49.8948 67.8556 51.5899 66.1579 53.6842 66.1579C55.7786 66.1579 57.4737 67.8556 57.4737 69.9473Z" fill="#292F33"/>
<path d="M57.4737 82.5787C57.4737 84.6705 55.7786 86.3682 53.6842 86.3682C51.5899 86.3682 49.8948 84.6705 49.8948 82.5787C49.8948 80.4869 51.5899 78.7892 53.6842 78.7892C55.7786 78.7892 57.4737 80.4869 57.4737 82.5787Z" fill="#292F33"/>
<path d="M32.2105 82.5787C32.2105 84.6705 30.5154 86.3682 28.4211 86.3682C26.3267 86.3682 24.6316 84.6705 24.6316 82.5787C24.6316 80.4869 26.3267 78.7892 28.4211 78.7892C30.5154 78.7892 32.2105 80.4869 32.2105 82.5787Z" fill="#292F33"/>
<path d="M32.2105 57.3155C32.2105 59.4073 30.5154 61.105 28.4211 61.105C26.3267 61.105 24.6316 59.4073 24.6316 57.3155C24.6316 55.2237 26.3267 53.526 28.4211 53.526C30.5154 53.526 32.2105 55.2237 32.2105 57.3155Z" fill="#292F33"/>
<path d="M44.8421 44.6842C44.8421 46.7759 43.147 48.4736 41.0527 48.4736C38.9583 48.4736 37.2632 46.7759 37.2632 44.6842C37.2632 42.5924 38.9583 40.8947 41.0527 40.8947C43.147 40.8947 44.8421 42.5924 44.8421 44.6842Z" fill="#292F33"/>
<path d="M57.4737 44.6842C57.4737 46.7759 55.7786 48.4736 53.6842 48.4736C51.5899 48.4736 49.8948 46.7759 49.8948 44.6842C49.8948 42.5924 51.5899 40.8947 53.6842 40.8947C55.7786 40.8947 57.4737 42.5924 57.4737 44.6842Z" fill="#292F33"/>
<path d="M32.2105 44.6842C32.2105 46.7759 30.5154 48.4736 28.4211 48.4736C26.3267 48.4736 24.6316 46.7759 24.6316 44.6842C24.6316 42.5924 26.3267 40.8947 28.4211 40.8947C30.5154 40.8947 32.2105 42.5924 32.2105 44.6842Z" fill="#292F33"/>
<path d="M44.8421 82.5787C44.8421 84.6705 43.147 86.3682 41.0527 86.3682C38.9583 86.3682 37.2632 84.6705 37.2632 82.5787C37.2632 80.4869 38.9583 78.7892 41.0527 78.7892C43.147 78.7892 44.8421 80.4869 44.8421 82.5787Z" fill="#292F33"/>
<defs>
<linearGradient id="paint0_linear_700_114" x1="60.0001" y1="120" x2="60.0001" y2="5.72205e-05" gradientUnits="userSpaceOnUse">
<stop stop-color="#E4E4E4"/>
<stop offset="1" stop-color="white"/>
</linearGradient>
</defs>
</svg>
