<svg width="15" height="15" viewBox="0 0 15 15" fill="none" xmlns="http://www.w3.org/2000/svg">
<path d="M7.5 10.7812C9.31218 10.7812 10.7812 9.31218 10.7812 7.5C10.7812 5.68782 9.31218 4.21875 7.5 4.21875C5.68782 4.21875 4.21875 5.68782 4.21875 7.5C4.21875 9.31218 5.68782 10.7812 7.5 10.7812Z" stroke="white" stroke-miterlimit="10" stroke-linecap="round" stroke-linejoin="round"/>
<path d="M7.52532 5.64428L7.95563 7.036H9.34829C9.37407 7.036 9.38485 7.07068 9.36376 7.08615L8.23688 7.94631L8.6672 9.33803C8.67516 9.36381 8.64704 9.3849 8.62641 9.36896L7.50001 8.50928L6.37313 9.36943C6.35251 9.38537 6.32438 9.36381 6.33235 9.3385L6.76266 7.94678L5.63579 7.08662C5.61516 7.07068 5.62548 7.03646 5.65126 7.03646H7.04391L7.47423 5.64475C7.48266 5.6185 7.51735 5.6185 7.52532 5.64428Z" fill="white"/>
<path d="M4.21875 7.5H2.34375C2.34375 8.53547 3.18328 9.375 4.21875 9.375H4.80938C4.43813 8.84344 4.21875 8.1975 4.21875 7.5ZM10.7812 7.5C10.7812 8.1975 10.5619 8.84344 10.1906 9.375H10.7812C11.8167 9.375 12.6562 8.53547 12.6562 7.5H10.7812ZM1.40625 5.625C1.40625 6.66047 2.24578 7.5 3.28125 7.5H4.21875C4.21875 6.8025 4.43813 6.15656 4.80938 5.625H1.40625ZM10.1906 5.625C10.5619 6.15656 10.7812 6.8025 10.7812 7.5H11.7188C12.7542 7.5 13.5938 6.66047 13.5938 5.625H10.1906Z" stroke="white" stroke-miterlimit="10" stroke-linecap="round" stroke-linejoin="round"/>
</svg>
