<svg width="48" height="48" viewBox="0 0 48 48" fill="none" xmlns="http://www.w3.org/2000/svg">
<path d="M44.835 23.7149C44.7455 22.7203 44.2646 21.802 43.498 21.1621C42.7315 20.5221 41.7421 20.2129 40.7475 20.3024C39.753 20.3919 38.8347 20.8728 38.1947 21.6394C37.5548 22.4059 37.2455 23.3953 37.335 24.3899C37.6311 27.7569 36.7396 31.1213 34.815 33.8999C32.7385 36.8487 29.6904 38.9727 26.205 39.8999C22.5077 40.8788 18.5824 40.5065 15.135 38.8499C11.4866 37.0972 8.57508 34.1114 6.91504 30.4199C8.07438 34.5332 10.6514 38.1038 14.19 40.4999C17.921 42.9691 22.4078 44.0323 26.85 43.4999C31.5182 43.0046 35.8626 40.8802 39.12 37.4999C42.5034 33.9292 44.526 29.2842 44.835 24.3749V24.2549C44.8492 24.0751 44.8492 23.8946 44.835 23.7149V23.7149ZM10.665 23.6099C10.369 20.2429 11.2605 16.8784 13.185 14.0999C15.2616 11.151 18.3096 9.027 21.795 8.09986C25.4924 7.12094 29.4177 7.49325 32.865 9.14986C36.5135 10.9025 39.425 13.8884 41.085 17.5799C39.9257 13.4666 37.3487 9.89595 33.81 7.49986C30.0791 5.03067 25.5922 3.96743 21.15 4.49986C16.4818 4.99513 12.1374 7.11953 8.88004 10.4999C5.49664 14.0705 3.47405 18.7156 3.16504 23.6249V23.7449C3.15007 23.9296 3.15007 24.1152 3.16504 24.2999C3.25455 25.2944 3.73548 26.2127 4.50203 26.8527C5.26859 27.4926 6.25797 27.8019 7.25254 27.7124C8.2471 27.6229 9.16537 27.1419 9.80534 26.3754C10.4453 25.6088 10.7545 24.6194 10.665 23.6249V23.6099Z" fill="white"/>
</svg>
