<svg width="15" height="15" viewBox="0 0 15 15" fill="none" xmlns="http://www.w3.org/2000/svg">
<path d="M11.875 9.37512V2.50012C11.8746 2.40624 11.853 2.31366 11.8119 2.22927C11.7708 2.14487 11.7112 2.07082 11.6375 2.01262C11.5649 1.95388 11.48 1.91216 11.3892 1.89053C11.2983 1.8689 11.2038 1.8679 11.1125 1.88762L5.48749 3.13762C5.34863 3.16893 5.22462 3.24671 5.13597 3.35809C5.04732 3.46947 4.99935 3.60777 4.99999 3.75012V8.96262C4.57333 8.76119 4.09285 8.70354 3.63064 8.79832C3.16843 8.8931 2.74942 9.13519 2.43645 9.48828C2.12349 9.84137 1.93346 10.2864 1.89486 10.7567C1.85626 11.2269 1.97117 11.697 2.22237 12.0964C2.47356 12.4958 2.84749 12.803 3.28805 12.9718C3.72862 13.1407 4.21207 13.1622 4.66587 13.033C5.11967 12.9039 5.51937 12.6311 5.80498 12.2555C6.0906 11.88 6.24675 11.4219 6.24999 10.9501C6.25646 10.8419 6.25646 10.7334 6.24999 10.6251V4.25012L10.625 3.28137V7.71262C10.1981 7.51107 9.71731 7.45346 9.25487 7.54845C8.79244 7.64344 8.3733 7.8859 8.06041 8.23941C7.74751 8.59292 7.55776 9.0384 7.51963 9.50895C7.48151 9.9795 7.59708 10.4497 7.84899 10.849C8.10089 11.2483 8.47553 11.555 8.91665 11.7232C9.35776 11.8914 9.84154 11.9119 10.2953 11.7817C10.7491 11.6516 11.1484 11.3776 11.4332 11.0012C11.7181 10.6247 11.8731 10.166 11.875 9.69387C11.8809 9.5877 11.8809 9.48128 11.875 9.37512V9.37512Z" fill="white"/>
</svg>
