<svg width="19" height="19" viewBox="0 0 19 19" fill="none" xmlns="http://www.w3.org/2000/svg">
<path d="M15.291 3.70897C12.0925 0.510421 6.90746 0.510421 3.70891 3.70897C0.51036 6.90752 0.51036 12.0926 3.70891 15.2911C6.90746 18.4897 12.0925 18.4897 15.291 15.2911C18.4896 12.0926 18.4889 6.90752 15.291 3.70897V3.70897ZM13.9571 7.4749L8.98043 12.4522C8.85757 12.5751 8.69095 12.6441 8.51722 12.6441C8.34349 12.6441 8.17688 12.5751 8.05402 12.4522L5.04284 9.44042C4.98201 9.37959 4.93376 9.30738 4.90084 9.2279C4.86792 9.14842 4.85098 9.06324 4.85098 8.97721C4.85098 8.80348 4.91999 8.63686 5.04284 8.51401C5.16569 8.39116 5.33231 8.32214 5.50605 8.32214C5.67979 8.32214 5.84641 8.39116 5.96926 8.51401L8.51722 11.062L13.0307 6.54783C13.0916 6.48701 13.1638 6.43876 13.2434 6.40586C13.3229 6.37295 13.4081 6.35603 13.4941 6.35606C13.5802 6.35609 13.6654 6.37307 13.7449 6.40603C13.8244 6.439 13.8966 6.48729 13.9574 6.54816C14.0183 6.60903 14.0665 6.68129 14.0994 6.76081C14.1323 6.84033 14.1492 6.92555 14.1492 7.0116C14.1492 7.09766 14.1322 7.18286 14.0992 7.26236C14.0663 7.34185 14.018 7.41407 13.9571 7.4749V7.4749Z" fill="white"/>
</svg>
