<svg width="15" height="15" viewBox="0 0 15 15" fill="none" xmlns="http://www.w3.org/2000/svg">
<path d="M4.87968 12.3797L3.94218 13.3172C3.68484 13.5652 3.07828 13.7911 2.62031 13.3172L1.68281 12.3797C1.3125 12.0141 1.3125 11.4234 1.68281 11.0578C1.86562 10.875 2.10468 10.7812 2.34375 10.7812V2.34375C2.34375 1.82812 2.76562 1.40625 3.28125 1.40625C3.79687 1.40625 4.21875 1.82812 4.21875 2.34375V10.7812C4.45781 10.7812 4.69687 10.875 4.87968 11.0578C5.25 11.4234 5.25 12.0141 4.87968 12.3797ZM12.6562 3.75H7.96875C7.45078 3.75 7.03125 3.33 7.03125 2.8125C7.03125 2.295 7.45078 1.875 7.96875 1.875H12.6562C13.1737 1.875 13.5937 2.295 13.5937 2.8125C13.5937 3.33 13.1737 3.75 12.6562 3.75ZM12.6562 6.09375C12.6562 5.57625 12.2362 5.15625 11.7187 5.15625H7.96875C7.45078 5.15625 7.03125 5.57625 7.03125 6.09375C7.03125 6.61125 7.45078 7.03125 7.96875 7.03125H11.7187C12.2362 7.03125 12.6562 6.61125 12.6562 6.09375ZM11.7187 9.375C11.7187 8.8575 11.2987 8.4375 10.7812 8.4375H7.96875C7.45078 8.4375 7.03125 8.8575 7.03125 9.375C7.03125 9.8925 7.45078 10.3125 7.96875 10.3125H10.7812C11.2987 10.3125 11.7187 9.8925 11.7187 9.375ZM10.7812 12.6562C10.7812 12.1388 10.3612 11.7188 9.84375 11.7188H7.96875C7.45078 11.7188 7.03125 12.1388 7.03125 12.6562C7.03125 13.1737 7.45078 13.5938 7.96875 13.5938H9.84375C10.3612 13.5938 10.7812 13.1737 10.7812 12.6562Z" fill="white"/>
</svg>
