<svg width="16" height="16" viewBox="0 0 16 16" fill="none" xmlns="http://www.w3.org/2000/svg">
<path d="M8.69398 2.03934C8.85274 2.10633 8.96389 2.24923 8.9924 2.41529L8.99961 2.5V13.5C8.99961 13.7014 8.87875 13.8832 8.693 13.9611C8.53379 14.0279 8.35356 14.0071 8.21483 13.911L8.14921 13.8567L5.22278 10.9817H3.49963C2.71994 10.9817 2.07919 10.3868 2.0065 9.62617L1.99963 9.48172V6.49273C1.99963 5.71304 2.59453 5.07228 3.35518 4.9996L3.49963 4.99273H5.22402L8.15073 2.14185C8.29474 2.00157 8.50875 1.96119 8.69398 2.03934ZM11.7374 3.05918L11.8239 3.11798L11.9217 3.20255C11.9846 3.25908 12.0714 3.34097 12.1742 3.4477C12.3795 3.66089 12.6501 3.97503 12.9201 4.38627C13.4605 5.20938 14.0029 6.42934 14.0029 8.00405C14.0029 9.57884 13.4604 10.797 12.9197 11.6183C12.6496 12.0286 12.3789 12.3418 12.1735 12.5543L12.0322 12.6952L11.8455 12.8642L11.8125 12.8913C11.596 13.0628 11.2808 13.0269 11.1093 12.8105C10.9572 12.6185 10.9688 12.3493 11.1244 12.1713L11.2536 12.0538C11.3002 12.0121 11.3697 11.947 11.4545 11.8593C11.6244 11.6835 11.8541 11.4184 12.0845 11.0685C12.5446 10.3694 13.0029 9.33953 13.0029 8.00405C13.0029 6.66847 12.5446 5.63643 12.0841 4.93509C11.8921 4.64261 11.7005 4.40901 11.5436 4.23707L11.3744 4.0608L11.19 3.89138C10.9743 3.71932 10.9382 3.40451 11.1101 3.18858C11.263 2.99655 11.5285 2.94702 11.7374 3.05918ZM10.7381 5.05908L10.8377 5.12882L10.9714 5.25456L11.0254 5.31119C11.1389 5.43362 11.2853 5.61296 11.4303 5.85143C11.7218 6.33096 12.0039 7.04439 12.0039 7.99855C12.0039 8.95268 11.7218 9.66687 11.4305 10.1471C11.2857 10.3859 11.1393 10.5657 11.0259 10.6884L10.9243 10.7927L10.8541 10.8577L10.8143 10.8914L10.7508 10.9202C10.6184 10.9732 10.3088 11.0597 10.1116 10.8129C9.95912 10.6221 9.96897 10.354 10.1225 10.1753L10.257 10.0461L10.2914 10.0098C10.3659 9.92923 10.47 9.80248 10.5755 9.62847C10.7851 9.28301 11.0039 8.74609 11.0039 7.99855C11.0039 7.25106 10.7851 6.71522 10.5758 6.3709C10.4967 6.2408 10.4184 6.13728 10.3529 6.05983L10.2576 5.95495L10.1891 5.88995C9.97439 5.71873 9.93908 5.40472 10.1109 5.18874C10.2637 4.99665 10.5292 4.947 10.7381 5.05908Z" fill="white"/>
</svg>
