<svg width="20" height="20" viewBox="0 0 20 20" fill="none" xmlns="http://www.w3.org/2000/svg">
<path d="M10 1.37939V3.44836M14.4345 2.58974C15.025 2.9306 15.5683 3.3475 16.0503 3.82974L14.4345 2.58974Z" stroke="white" stroke-width="2" stroke-miterlimit="10"/>
<path d="M10 2.75879C5.62 2.75879 2.06897 6.30982 2.06897 10.6898C2.06897 15.0698 5.62 18.6209 10 18.6209C14.38 18.6209 17.931 15.0698 17.931 10.6898C17.931 6.30982 14.38 2.75879 10 2.75879ZM10.6897 11.8781V12.414H9.31034V11.8781C8.9 11.6395 8.62069 11.1995 8.62069 10.6898C8.62069 10.1809 8.9 9.74086 9.31034 9.50155V4.1381H10.6897V9.50155C11.1 9.74017 11.3793 10.1802 11.3793 10.6898C11.3793 11.1988 11.1 11.6388 10.6897 11.8781V11.8781Z" fill="white"/>
</svg>
