<svg width="15" height="15" viewBox="0 0 15 15" fill="none" xmlns="http://www.w3.org/2000/svg">
<path d="M9.97266 0H4.99219C4.10449 0 3.38086 0.723633 3.38086 1.61133V13.3887C3.38086 14.2764 4.10449 15 4.99219 15H9.97266C10.8604 15 11.584 14.2764 11.584 13.3887V1.61133C11.584 0.723633 10.8633 0 9.97266 0ZM6.87598 0.662109H8.11231C8.25586 0.662109 8.37012 0.793945 8.37012 0.955078C8.37012 1.11621 8.25586 1.24805 8.11231 1.24805H6.87598C6.73242 1.24805 6.61817 1.11621 6.61817 0.955078C6.61817 0.793945 6.73242 0.662109 6.87598 0.662109ZM5.70703 0.618164C5.8916 0.618164 6.04395 0.767578 6.04395 0.955078C6.04395 1.14258 5.8916 1.28906 5.70703 1.28906C5.52246 1.28906 5.37012 1.13965 5.37012 0.952148C5.37012 0.764648 5.51953 0.618164 5.70703 0.618164ZM7.49414 13.9775C7.19532 13.9775 6.95508 13.7373 6.95508 13.4385C6.95508 13.1396 7.19532 12.8994 7.49414 12.8994C7.79297 12.8994 8.03321 13.1396 8.03321 13.4385C8.03321 13.7373 7.79297 13.9775 7.49414 13.9775ZM10.6465 12.583H4.32129V1.95117H10.6465V12.583Z" fill="white"/>
</svg>
