<svg width="20" height="20" viewBox="0 0 20 20" fill="none" xmlns="http://www.w3.org/2000/svg">
<path d="M10 6.89643V2.06885C14.351 2.06885 17.931 5.64885 17.931 9.99988C17.931 14.3509 14.351 17.9309 10 17.9309C5.64897 17.9309 2.06897 14.3509 2.06897 9.99988C2.06897 7.89712 2.90483 5.8785 4.39172 4.39161" stroke="white" stroke-width="2" stroke-miterlimit="10"/>
<path d="M6.06414 7.03944C5.93482 6.91013 5.86217 6.73474 5.86217 6.55186C5.86217 6.36898 5.93482 6.19359 6.06414 6.06427C6.19346 5.93495 6.36885 5.8623 6.55173 5.8623C6.73461 5.8623 6.91 5.93495 7.03931 6.06427L10.9752 9.02496C11.1069 9.1522 11.212 9.3044 11.2843 9.47268C11.3566 9.64096 11.3946 9.82195 11.3962 10.0051C11.3978 10.1882 11.3629 10.3699 11.2935 10.5394C11.2242 10.7089 11.1218 10.8629 10.9923 10.9924C10.8628 11.1219 10.7088 11.2243 10.5392 11.2937C10.3697 11.363 10.1881 11.3979 10.005 11.3963C9.82182 11.3947 9.64083 11.3567 9.47255 11.2844C9.30427 11.2121 9.15207 11.107 9.02483 10.9753L6.06414 7.03944Z" fill="white"/>
</svg>
