<svg width="19" height="19" viewBox="0 0 19 19" fill="none" xmlns="http://www.w3.org/2000/svg">
<path d="M10.858 14.735L9.72914 16.3696C9.61736 16.5289 9.38265 16.5289 9.2709 16.3696L8.14206 14.735C8.01354 14.5506 8.14486 14.2964 8.37118 14.2964H8.67575V12.0835H10.3243V14.2964H10.6288C10.8552 14.2964 10.9865 14.5506 10.858 14.735ZM17.4632 2.51074H1.53678C0.997517 2.51074 0.558838 2.94944 0.558838 3.48868V8.66626C0.558838 9.2055 0.997517 9.6442 1.53678 9.6442H2.16825V8.52928H2.0956C1.86369 8.52928 1.67648 8.3421 1.67648 8.11016V4.04751C1.67648 3.81564 1.86369 3.62839 2.0956 3.62839H16.9044C17.1363 3.62839 17.3235 3.81564 17.3235 4.04751V8.11016C17.3235 8.3421 17.1363 8.52928 16.9044 8.52928H16.8318V9.6442H17.4632C18.0025 9.6442 18.4412 9.20551 18.4412 8.66626V3.48868C18.4412 2.94944 18.0025 2.51074 17.4632 2.51074Z" fill="white"/>
<path d="M9.50001 5.91431C8.42916 5.91431 7.55804 6.78556 7.55804 7.85627C7.55804 8.52165 7.90733 9.16943 8.50925 9.52429C9.76997 10.2849 11.442 9.37878 11.442 7.85627C11.442 6.78556 10.5709 5.91431 9.50001 5.91431ZM10.1768 8.03616C10.3709 8.27866 10.3413 8.50166 10.3466 8.5297C10.3466 8.52997 10.3465 8.53018 10.3465 8.53038C10.3465 8.53174 10.3465 8.53488 10.3464 8.53515C10.331 8.92324 10.0162 9.22482 9.63972 9.28266V9.35675C9.63972 9.43397 9.57723 9.49645 9.50001 9.49645C9.42279 9.49645 9.36031 9.43397 9.36031 9.35675V9.28239C8.96923 9.22229 8.66872 8.91682 8.65345 8.53543C8.65342 8.53441 8.65393 8.53352 8.65391 8.53256C8.6539 8.53147 8.65332 8.53079 8.65332 8.5297V8.50432C8.65332 8.4271 8.7158 8.36462 8.79302 8.36462C8.87024 8.36462 8.93273 8.4271 8.93273 8.50432C8.93273 8.50821 8.93084 8.51183 8.93053 8.51565C8.93084 8.51858 8.93247 8.52097 8.93259 8.52397C8.94088 8.72896 9.09686 8.93886 9.36031 8.99841C9.36031 8.82398 9.36031 7.95737 9.36031 7.98534C8.9826 7.9279 8.65332 7.60265 8.65332 7.20795C8.65332 6.81803 8.96007 6.49557 9.36031 6.43309V6.35853C9.36031 6.28131 9.42279 6.21882 9.50001 6.21882C9.57723 6.21882 9.63972 6.28131 9.63972 6.35853V6.43309C10.0399 6.49557 10.3466 6.8181 10.3466 7.20795C10.3466 7.28517 10.2841 7.34766 10.2069 7.34766C10.1296 7.34766 10.0672 7.28517 10.0672 7.20795C10.0672 6.97097 9.88468 6.77301 9.63972 6.7168V7.72721C9.83715 7.75716 10.0405 7.8663 10.1768 8.03616Z" fill="white"/>
<path d="M9.63973 8.99837C9.89582 8.94223 10.0589 8.73349 10.0673 8.5242C10.0672 8.27017 9.88517 8.06797 9.63973 8.01149C9.63973 8.09308 9.63973 9.03432 9.63973 8.99837ZM8.93274 7.20791C8.93274 7.44503 9.11488 7.64503 9.36032 7.70097V6.71484C9.11487 6.77078 8.93274 6.97079 8.93274 7.20791Z" fill="white"/>
<path d="M14.4365 4.93042H4.56337C4.49883 5.50316 4.04302 5.95911 3.47028 6.02351V9.69134C4.04301 9.75573 4.49883 10.2114 4.56337 10.7842H14.4365C14.5012 10.2114 14.9584 9.75546 15.5325 9.69134V6.02351C14.9584 5.95939 14.5012 5.50316 14.4365 4.93042ZM6.20423 7.99576H5.87365C5.79643 7.99576 5.73395 7.93328 5.73395 7.85606C5.73395 7.77884 5.79643 7.71635 5.87365 7.71635H6.20423C6.28145 7.71635 6.34393 7.77884 6.34393 7.85606C6.34393 7.93328 6.28145 7.99576 6.20423 7.99576ZM9.50001 10.0772C9.09767 10.0772 8.70556 9.96883 8.36612 9.76392C7.6864 9.36335 7.27863 8.62778 7.27863 7.85606C7.27863 6.63117 8.27512 5.63468 9.50001 5.63468C10.7249 5.63468 11.7214 6.63117 11.7214 7.85606C11.7214 9.05822 10.7412 10.0772 9.50001 10.0772ZM13.1266 7.99576H12.7961C12.7188 7.99576 12.6563 7.93328 12.6563 7.85606C12.6563 7.77884 12.7188 7.71635 12.7961 7.71635H13.1266C13.2038 7.71635 13.2663 7.77884 13.2663 7.85606C13.2663 7.93328 13.2038 7.99576 13.1266 7.99576Z" fill="white"/>
<path d="M16.2869 3.90796H2.71309C2.56781 3.90796 2.44766 4.02816 2.44766 4.17625V11.5387C2.44766 11.6868 2.56781 11.8042 2.71309 11.8042H16.2869C16.4322 11.8042 16.5524 11.6868 16.5524 11.5387V4.17625C16.5524 4.02816 16.4322 3.90796 16.2869 3.90796ZM15.8119 9.82322C15.8119 9.90044 15.7494 9.96293 15.6722 9.96293C15.1407 9.96293 14.7082 10.3941 14.7082 10.9239C14.7082 11.0012 14.6457 11.0637 14.5685 11.0637H4.43146C4.35424 11.0637 4.29175 11.0012 4.29175 10.9239C4.29175 10.3941 3.86063 9.96293 3.3306 9.96293C3.25337 9.96293 3.19089 9.90044 3.19089 9.82322V5.89181C3.19089 5.81459 3.25337 5.7521 3.3306 5.7521C3.86063 5.7521 4.29175 5.32098 4.29175 4.79081C4.29175 4.71359 4.35424 4.6511 4.43146 4.6511H14.5685C14.6457 4.6511 14.7082 4.71359 14.7082 4.79081C14.7082 5.32098 15.1407 5.7521 15.6722 5.7521C15.7494 5.7521 15.8119 5.81459 15.8119 5.89181V9.82322H15.8119Z" fill="white"/>
</svg>
