<svg width="32" height="32" viewBox="0 0 32 32" fill="none" xmlns="http://www.w3.org/2000/svg">
<path d="M21.18 2.92004H10.82C10.0509 2.92004 9.31329 3.22558 8.76943 3.76943C8.22558 4.31329 7.92004 5.05092 7.92004 5.82004V26.18C7.92004 26.9492 8.22558 27.6868 8.76943 28.2307C9.31329 28.7745 10.0509 29.08 10.82 29.08H21.18C21.9492 29.08 22.6868 28.7745 23.2307 28.2307C23.7745 27.6868 24.08 26.9492 24.08 26.18V5.82004C24.08 5.05092 23.7745 4.31329 23.2307 3.76943C22.6868 3.22558 21.9492 2.92004 21.18 2.92004ZM21.92 26.18C21.92 26.3763 21.8421 26.5645 21.7033 26.7033C21.5645 26.8421 21.3763 26.92 21.18 26.92H10.82C10.6238 26.92 10.4356 26.8421 10.2968 26.7033C10.158 26.5645 10.08 26.3763 10.08 26.18V5.82004C10.08 5.62378 10.158 5.43556 10.2968 5.29678C10.4356 5.15801 10.6238 5.08004 10.82 5.08004H21.18C21.3763 5.08004 21.5645 5.15801 21.7033 5.29678C21.8421 5.43556 21.92 5.62378 21.92 5.82004V26.18Z" fill="white"/>
<path d="M17 23.92H15C14.7136 23.92 14.4389 24.0338 14.2364 24.2364C14.0338 24.4389 13.92 24.7136 13.92 25C13.92 25.2865 14.0338 25.5612 14.2364 25.7637C14.4389 25.9663 14.7136 26.08 15 26.08H17C17.2865 26.08 17.5612 25.9663 17.7637 25.7637C17.9663 25.5612 18.08 25.2865 18.08 25C18.08 24.7136 17.9663 24.4389 17.7637 24.2364C17.5612 24.0338 17.2865 23.92 17 23.92Z" fill="white"/>
</svg>
