<svg width="40" height="40" viewBox="0 0 40 40" fill="none" xmlns="http://www.w3.org/2000/svg">
<path d="M24.2165 15.7832L15.7832 24.2165C14.6999 23.1332 14.0332 21.6499 14.0332 19.9999C14.0332 16.6999 16.6999 14.0332 19.9999 14.0332C21.6499 14.0332 23.1332 14.6999 24.2165 15.7832Z" stroke="white" stroke-width="2" stroke-linecap="round" stroke-linejoin="round"/>
<path d="M29.6997 9.6168C26.7831 7.4168 23.4497 6.2168 19.9997 6.2168C14.1164 6.2168 8.63307 9.68346 4.81641 15.6835C3.31641 18.0335 3.31641 21.9835 4.81641 24.3335C6.13307 26.4001 7.66641 28.1835 9.33307 29.6168" stroke="white" stroke-width="2" stroke-linecap="round" stroke-linejoin="round"/>
<path d="M14.0332 32.5501C15.9332 33.3501 17.9499 33.7835 19.9999 33.7835C25.8832 33.7835 31.3665 30.3168 35.1832 24.3168C36.6832 21.9668 36.6832 18.0168 35.1832 15.6668C34.6332 14.8001 34.0332 13.9835 33.4165 13.2168" stroke="white" stroke-width="2" stroke-linecap="round" stroke-linejoin="round"/>
<path d="M25.8504 21.166C25.4171 23.516 23.5004 25.4327 21.1504 25.866" stroke="white" stroke-width="2" stroke-linecap="round" stroke-linejoin="round"/>
<path d="M15.783 24.2168L3.33301 36.6668" stroke="white" stroke-width="2" stroke-linecap="round" stroke-linejoin="round"/>
<path d="M36.6668 3.33398L24.2168 15.784" stroke="white" stroke-width="2" stroke-linecap="round" stroke-linejoin="round"/>
</svg>
