<svg width="40" height="40" viewBox="0 0 40 40" fill="none" xmlns="http://www.w3.org/2000/svg">
<path d="M25.9665 19.9999C25.9665 23.2999 23.2999 25.9665 19.9999 25.9665C16.6999 25.9665 14.0332 23.2999 14.0332 19.9999C14.0332 16.6999 16.6999 14.0332 19.9999 14.0332C23.2999 14.0332 25.9665 16.6999 25.9665 19.9999Z" stroke="white" stroke-width="2" stroke-linecap="round" stroke-linejoin="round"/>
<path d="M19.9997 33.7826C25.8831 33.7826 31.3664 30.3159 35.1831 24.3159C36.6831 21.9659 36.6831 18.0159 35.1831 15.6659C31.3664 9.66588 25.8831 6.19922 19.9997 6.19922C14.1164 6.19922 8.63307 9.66588 4.81641 15.6659C3.31641 18.0159 3.31641 21.9659 4.81641 24.3159C8.63307 30.3159 14.1164 33.7826 19.9997 33.7826Z" stroke="white" stroke-width="2" stroke-linecap="round" stroke-linejoin="round"/>
</svg>
