<svg width="32" height="32" viewBox="0 0 32 32" fill="none" xmlns="http://www.w3.org/2000/svg">
<path d="M16 4C13.6266 4 11.3066 4.70379 9.33316 6.02236C7.35977 7.34094 5.8217 9.21509 4.91345 11.4078C4.0052 13.6005 3.76756 16.0133 4.23058 18.3411C4.6936 20.6689 5.83649 22.8071 7.51472 24.4853C9.19295 26.1635 11.3312 27.3064 13.6589 27.7694C15.9867 28.2324 18.3995 27.9948 20.5922 27.0866C22.7849 26.1783 24.6591 24.6402 25.9776 22.6668C27.2962 20.6935 28 18.3734 28 16C28 12.8174 26.7357 9.76516 24.4853 7.51472C22.2348 5.26428 19.1826 4 16 4ZM16 26C14.0222 26 12.0888 25.4135 10.4443 24.3147C8.79981 23.2159 7.51809 21.6541 6.76121 19.8268C6.00433 17.9996 5.8063 15.9889 6.19215 14.0491C6.578 12.1093 7.53041 10.3275 8.92894 8.92893C10.3275 7.53041 12.1093 6.578 14.0491 6.19215C15.9889 5.8063 17.9996 6.00433 19.8268 6.7612C21.6541 7.51808 23.2159 8.79981 24.3147 10.4443C25.4135 12.0888 26 14.0222 26 16C26 18.6522 24.9464 21.1957 23.0711 23.0711C21.1957 24.9464 18.6522 26 16 26Z" fill="white"/>
<path d="M16.0005 13.6993C15.7353 13.6993 15.4809 13.8047 15.2934 13.9922C15.1058 14.1798 15.0005 14.4341 15.0005 14.6993V21.4993C15.0005 21.7645 15.1058 22.0189 15.2934 22.2064C15.4809 22.394 15.7353 22.4993 16.0005 22.4993C16.2657 22.4993 16.52 22.394 16.7076 22.2064C16.8951 22.0189 17.0005 21.7645 17.0005 21.4993V14.6993C17.0005 14.4341 16.8951 14.1798 16.7076 13.9922C16.52 13.8047 16.2657 13.6993 16.0005 13.6993ZM16.0005 9.59932C15.7298 9.6095 15.4732 9.72294 15.2835 9.91635C15.0938 10.1098 14.9854 10.3685 14.9805 10.6393V10.7993C14.98 10.9298 15.0067 11.0589 15.0589 11.1785C15.111 11.2981 15.1875 11.4056 15.2834 11.494C15.3794 11.5824 15.4927 11.6499 15.6161 11.6921C15.7396 11.7344 15.8705 11.7504 16.0005 11.7393C16.2625 11.7294 16.5112 11.6209 16.6966 11.4355C16.882 11.25 16.9906 11.0014 17.0005 10.7393V10.4993C17.0013 10.3722 16.9751 10.2464 16.9238 10.1301C16.8724 10.0139 16.797 9.90981 16.7026 9.82479C16.6081 9.73976 16.4967 9.67571 16.3757 9.63685C16.2547 9.59799 16.1268 9.5852 16.0005 9.59932Z" fill="white"/>
</svg>
