<svg width="24" height="24" viewBox="0 0 24 24" fill="none" xmlns="http://www.w3.org/2000/svg">
<path d="M6 7.75C5.80109 7.75 5.61032 7.82902 5.46967 7.96967C5.32902 8.11032 5.25 8.30109 5.25 8.5C5.25 8.69891 5.32902 8.88968 5.46967 9.03033C5.61032 9.17098 5.80109 9.25 6 9.25H11C11.1989 9.25 11.3897 9.17098 11.5303 9.03033C11.671 8.88968 11.75 8.69891 11.75 8.5C11.75 8.30109 11.671 8.11032 11.5303 7.96967C11.3897 7.82902 11.1989 7.75 11 7.75H6ZM5.25 12C5.25 11.8011 5.32902 11.6103 5.46967 11.4697C5.61032 11.329 5.80109 11.25 6 11.25H13.5C13.6989 11.25 13.8897 11.329 14.0303 11.4697C14.171 11.6103 14.25 11.8011 14.25 12C14.25 12.1989 14.171 12.3897 14.0303 12.5303C13.8897 12.671 13.6989 12.75 13.5 12.75H6C5.80109 12.75 5.61032 12.671 5.46967 12.5303C5.32902 12.3897 5.25 12.1989 5.25 12ZM6 14.75C5.80109 14.75 5.61032 14.829 5.46967 14.9697C5.32902 15.1103 5.25 15.3011 5.25 15.5C5.25 15.6989 5.32902 15.8897 5.46967 16.0303C5.61032 16.171 5.80109 16.25 6 16.25H13.5C13.6989 16.25 13.8897 16.171 14.0303 16.0303C14.171 15.8897 14.25 15.6989 14.25 15.5C14.25 15.3011 14.171 15.1103 14.0303 14.9697C13.8897 14.829 13.6989 14.75 13.5 14.75H6Z" fill="white"/>
<path fill-rule="evenodd" clip-rule="evenodd" d="M8.53157 2H11.0779C12.4115 2 13.4876 2 14.3334 2.11414C15.2114 2.23121 15.9509 2.48487 16.5382 3.0712C17.1255 3.6585 17.3772 4.398 17.4963 5.27603C17.6094 6.12186 17.6094 7.19794 17.6094 8.53157V10.7823C17.9577 10.7842 18.2631 10.792 18.5284 10.8096C18.9743 10.8398 19.3674 10.9042 19.7411 11.0593C20.185 11.2431 20.5884 11.5124 20.9282 11.8521C21.268 12.1917 21.5376 12.595 21.7215 13.0388C21.8757 13.4115 21.9401 13.8056 21.9703 14.2505C21.9996 14.6836 21.9996 15.2163 21.9996 15.8758V19.0728C21.9996 19.4777 21.9157 19.8783 21.753 20.2491C21.5903 20.6199 21.3524 20.953 21.0544 21.2271C20.7564 21.5013 20.4047 21.7106 20.0217 21.8419C19.6386 21.9732 19.2324 22.0236 18.8289 21.9898V21.9996H8.53157C7.19794 21.9996 6.12186 21.9996 5.27603 21.8864C4.398 21.7674 3.6585 21.5157 3.0712 20.9284C2.48389 20.3411 2.23219 19.6016 2.11414 18.7235C2 17.8777 2 16.8016 2 15.468V8.53157C2 7.19794 2 6.12186 2.11414 5.27603C2.23121 4.398 2.48487 3.6585 3.0712 3.0712C3.6585 2.48389 4.398 2.23219 5.27603 2.11414C6.12186 2 7.19794 2 8.53157 2ZM17.6094 12.2456C17.9362 12.2476 18.2016 12.2544 18.4289 12.27C18.7996 12.2954 19.0162 12.3422 19.1811 12.4105C19.7186 12.6339 20.1469 13.0612 20.3694 13.5988C20.4377 13.7637 20.4845 13.9793 20.5099 14.35C20.5362 14.7275 20.5362 15.2105 20.5362 15.9021V19.0728C20.5362 19.4609 20.382 19.8331 20.1076 20.1076C19.8331 20.382 19.4609 20.5362 19.0728 20.5362C18.6847 20.5362 18.3125 20.382 18.038 20.1076C17.7636 19.8331 17.6094 19.4609 17.6094 19.0728V12.2456ZM16.146 8.58523V19.0728C16.146 19.6055 16.2885 20.106 16.5373 20.5362H8.58523C7.18526 20.5362 6.20772 20.5342 5.47115 20.4357C4.75506 20.3391 4.37653 20.1625 4.1063 19.8933C3.83606 19.623 3.66045 19.2445 3.56387 18.5275C3.46533 17.7909 3.46338 16.8143 3.46338 15.4143V8.58523C3.46338 7.18526 3.46533 6.20772 3.56387 5.47115C3.66045 4.75506 3.83703 4.37653 4.1063 4.1063C4.37653 3.83606 4.75506 3.66045 5.47212 3.56387C6.20772 3.46533 7.18526 3.46338 8.58523 3.46338H11.0242C12.4242 3.46338 13.4017 3.46533 14.1383 3.56387C14.8544 3.66045 15.2329 3.83703 15.5031 4.1063C15.7734 4.37653 15.949 4.75506 16.0456 5.47212C16.1441 6.20772 16.146 7.18526 16.146 8.58523Z" fill="white"/>
</svg>
