<svg width="64" height="64" viewBox="0 0 64 64" fill="none" xmlns="http://www.w3.org/2000/svg">
<path d="M60.553 56.7807L45.419 41.6467C48.8241 37.3969 50.6756 32.1117 50.667 26.666C50.667 13.4113 39.9223 2.66602 26.667 2.66602C13.4123 2.66602 2.66699 13.4113 2.66699 26.666C2.66699 39.9207 13.4123 50.666 26.667 50.666C32.3337 50.666 37.5417 48.702 41.6477 45.4174L56.7817 60.5514C57.029 60.7993 57.3228 60.996 57.6464 61.1301C57.9699 61.2642 58.3168 61.333 58.667 61.3327C59.1944 61.3327 59.7099 61.1763 60.1485 60.8834C60.587 60.5904 60.9288 60.174 61.1307 59.6867C61.3325 59.1995 61.3854 58.6634 61.2826 58.1461C61.1798 57.6288 60.9259 57.1537 60.553 56.7807ZM26.667 45.3327C16.3577 45.3327 8.00033 36.9753 8.00033 26.666C8.00033 16.3567 16.3577 7.99935 26.667 7.99935C36.977 7.99935 45.3337 16.3567 45.3337 26.666C45.3337 36.9753 36.977 45.3327 26.667 45.3327Z" fill="white"/>
</svg>
