<svg width="24" height="24" viewBox="0 0 24 24" fill="none" xmlns="http://www.w3.org/2000/svg">
<path d="M7.28171 22H8.13805C8.36516 22 8.58298 21.9122 8.74357 21.7559C8.90417 21.5996 8.99439 21.3877 8.99439 21.1667C8.99439 20.9457 8.90417 20.7337 8.74357 20.5774C8.58298 20.4211 8.36516 20.3333 8.13805 20.3333H7.28171C6.60036 20.3333 5.94692 20.0699 5.46513 19.6011C4.98335 19.1323 4.71268 18.4964 4.71268 17.8333V6.16667C4.71268 5.50363 4.98335 4.86774 5.46513 4.3989C5.94692 3.93006 6.60036 3.66667 7.28171 3.66667H14.1324C14.8138 3.66667 15.4672 3.93006 15.949 4.3989C16.4308 4.86774 16.7015 5.50363 16.7015 6.16667V9.5C16.7015 9.72101 16.7917 9.93297 16.9523 10.0893C17.1129 10.2455 17.3307 10.3333 17.5578 10.3333C17.7849 10.3333 18.0027 10.2455 18.1633 10.0893C18.3239 9.93297 18.4141 9.72101 18.4141 9.5V6.16667C18.4128 5.062 17.9612 4.00296 17.1586 3.22185C16.3559 2.44073 15.2676 2.00132 14.1324 2L7.28171 2C6.14654 2.00132 5.05827 2.44073 4.25558 3.22185C3.4529 4.00296 3.00136 5.062 3 6.16667V17.8333C3.00136 18.938 3.4529 19.997 4.25558 20.7782C5.05827 21.5593 6.14654 21.9987 7.28171 22Z" fill="white"/>
<path d="M14.1329 6.16797H7.28212C7.05501 6.16797 6.83719 6.25577 6.6766 6.41205C6.516 6.56833 6.42578 6.78029 6.42578 7.0013C6.42578 7.22232 6.516 7.43428 6.6766 7.59056C6.83719 7.74684 7.05501 7.83464 7.28212 7.83464H14.1329C14.36 7.83464 14.5778 7.74684 14.7384 7.59056C14.899 7.43428 14.9892 7.22232 14.9892 7.0013C14.9892 6.78029 14.899 6.56833 14.7384 6.41205C14.5778 6.25577 14.36 6.16797 14.1329 6.16797ZM14.9892 10.3346C14.9892 10.1136 14.899 9.90166 14.7384 9.74538C14.5778 9.5891 14.36 9.5013 14.1329 9.5013H7.28212C7.05501 9.5013 6.83719 9.5891 6.6766 9.74538C6.516 9.90166 6.42578 10.1136 6.42578 10.3346C6.42578 10.5556 6.516 10.7676 6.6766 10.9239C6.83719 11.0802 7.05501 11.168 7.28212 11.168H14.1329C14.36 11.168 14.5778 11.0802 14.7384 10.9239C14.899 10.7676 14.9892 10.5556 14.9892 10.3346ZM7.28212 12.8346C7.05501 12.8346 6.83719 12.9224 6.6766 13.0787C6.516 13.235 6.42578 13.447 6.42578 13.668C6.42578 13.889 6.516 14.1009 6.6766 14.2572C6.83719 14.4135 7.05501 14.5013 7.28212 14.5013H10.7075C10.9346 14.5013 11.1524 14.4135 11.313 14.2572C11.4736 14.1009 11.5638 13.889 11.5638 13.668C11.5638 13.447 11.4736 13.235 11.313 13.0787C11.1524 12.9224 10.9346 12.8346 10.7075 12.8346H7.28212ZM16.5983 12.7338L11.7539 17.448C11.6436 17.5552 11.5654 17.6898 11.5279 17.8371L10.7323 20.968C10.697 21.1073 10.6992 21.2532 10.7388 21.3915C10.7784 21.5297 10.8541 21.6557 10.9584 21.7571C11.0633 21.8578 11.1927 21.9308 11.3346 21.9693C11.4765 22.0078 11.6261 22.0105 11.7694 21.9771L14.9892 21.203C15.1407 21.1668 15.2791 21.0907 15.3891 20.983L20.2326 16.2696C20.4743 16.0382 20.6666 15.7625 20.7984 15.4584C20.9301 15.1543 20.9986 14.8278 21.0001 14.4978C21.0015 14.1678 20.9358 13.8408 20.8066 13.5356C20.6775 13.2304 20.4876 12.9532 20.2479 12.7198C20.0081 12.4864 19.7232 12.3015 19.4096 12.1758C19.0961 12.0501 18.76 11.986 18.4209 11.9873C18.0818 11.9887 17.7463 12.0553 17.4337 12.1834C17.1212 12.3115 16.8378 12.4986 16.6 12.7338H16.5983ZM14.3444 19.6405L12.7353 20.028L13.1335 18.4621L15.9928 15.6796L17.2037 16.858L14.3444 19.6405ZM19.02 15.0905L18.4146 15.6796L17.2037 14.5013L17.8091 13.9121C17.9697 13.7559 18.1875 13.6681 18.4146 13.6681C18.6416 13.6681 18.8594 13.7559 19.02 13.9121C19.1781 14.0697 19.2665 14.2811 19.2665 14.5013C19.2665 14.7215 19.1781 14.9329 19.02 15.0905Z" fill="white"/>
</svg>
